<svg width="37" height="37" viewBox="0 0 37 37" fill="none" xmlns="http://www.w3.org/2000/svg">
<path fill-rule="evenodd" clip-rule="evenodd" d="M13.875 28.9062C13.875 28.5996 13.9968 28.3055 14.2137 28.0887C14.4305 27.8718 14.7246 27.75 15.0312 27.75H31.2188C31.5254 27.75 31.8195 27.8718 32.0363 28.0887C32.2532 28.3055 32.375 28.5996 32.375 28.9062C32.375 29.2129 32.2532 29.507 32.0363 29.7238C31.8195 29.9407 31.5254 30.0625 31.2188 30.0625H15.0312C14.7246 30.0625 14.4305 29.9407 14.2137 29.7238C13.9968 29.507 13.875 29.2129 13.875 28.9062ZM4.625 21.9688C4.625 21.6621 4.74682 21.368 4.96366 21.1512C5.1805 20.9343 5.47459 20.8125 5.78125 20.8125H31.2188C31.5254 20.8125 31.8195 20.9343 32.0363 21.1512C32.2532 21.368 32.375 21.6621 32.375 21.9688C32.375 22.2754 32.2532 22.5695 32.0363 22.7863C31.8195 23.0032 31.5254 23.125 31.2188 23.125H5.78125C5.47459 23.125 5.1805 23.0032 4.96366 22.7863C4.74682 22.5695 4.625 22.2754 4.625 21.9688ZM4.625 15.0312C4.625 14.7246 4.74682 14.4305 4.96366 14.2137C5.1805 13.9968 5.47459 13.875 5.78125 13.875H31.2188C31.5254 13.875 31.8195 13.9968 32.0363 14.2137C32.2532 14.4305 32.375 14.7246 32.375 15.0312C32.375 15.3379 32.2532 15.632 32.0363 15.8488C31.8195 16.0657 31.5254 16.1875 31.2188 16.1875H5.78125C5.47459 16.1875 5.1805 16.0657 4.96366 15.8488C4.74682 15.632 4.625 15.3379 4.625 15.0312ZM4.625 8.09375C4.625 7.78709 4.74682 7.493 4.96366 7.27616C5.1805 7.05932 5.47459 6.9375 5.78125 6.9375H31.2188C31.5254 6.9375 31.8195 7.05932 32.0363 7.27616C32.2532 7.493 32.375 7.78709 32.375 8.09375C32.375 8.40041 32.2532 8.6945 32.0363 8.91134C31.8195 9.12818 31.5254 9.25 31.2188 9.25H5.78125C5.47459 9.25 5.1805 9.12818 4.96366 8.91134C4.74682 8.6945 4.625 8.40041 4.625 8.09375Z" fill="#F3EF2A"/>
</svg>
