<svg width="17" height="17" viewBox="0 0 17 17" fill="none" xmlns="http://www.w3.org/2000/svg">
<g clip-path="url(#clip0_30_36)">
<path d="M0.53125 1.0625C0.390354 1.0625 0.255228 1.11847 0.1556 1.2181C0.0559708 1.31773 0 1.45285 0 1.59375C0 1.73465 0.0559708 1.86977 0.1556 1.9694C0.255228 2.06903 0.390354 2.125 0.53125 2.125H1.71063L2.13669 3.83244L3.72831 12.3165C3.7511 12.4382 3.81571 12.5482 3.91097 12.6273C4.00623 12.7065 4.12615 12.7499 4.25 12.75H5.3125C4.74891 12.75 4.20841 12.9739 3.8099 13.3724C3.41138 13.7709 3.1875 14.3114 3.1875 14.875C3.1875 15.4386 3.41138 15.9791 3.8099 16.3776C4.20841 16.7761 4.74891 17 5.3125 17C5.87609 17 6.41659 16.7761 6.8151 16.3776C7.21362 15.9791 7.4375 15.4386 7.4375 14.875C7.4375 14.3114 7.21362 13.7709 6.8151 13.3724C6.41659 12.9739 5.87609 12.75 5.3125 12.75H12.75C12.1864 12.75 11.6459 12.9739 11.2474 13.3724C10.8489 13.7709 10.625 14.3114 10.625 14.875C10.625 15.4386 10.8489 15.9791 11.2474 16.3776C11.6459 16.7761 12.1864 17 12.75 17C13.3136 17 13.8541 16.7761 14.2526 16.3776C14.6511 15.9791 14.875 15.4386 14.875 14.875C14.875 14.3114 14.6511 13.7709 14.2526 13.3724C13.8541 12.9739 13.3136 12.75 12.75 12.75H13.8125C13.9364 12.7499 14.0563 12.7065 14.1515 12.6273C14.2468 12.5482 14.3114 12.4382 14.3342 12.3165L15.9279 3.8165C15.9423 3.73983 15.9396 3.66093 15.92 3.58543C15.9004 3.50992 15.8645 3.43965 15.8147 3.3796C15.7649 3.31956 15.7025 3.27122 15.6319 3.23802C15.5613 3.20482 15.4843 3.18757 15.4062 3.1875H3.07063L2.64031 1.46519C2.61163 1.35021 2.54534 1.24812 2.45196 1.17515C2.35859 1.10219 2.2435 1.06253 2.125 1.0625H0.53125ZM6.375 14.875C6.375 15.1568 6.26306 15.427 6.0638 15.6263C5.86454 15.8256 5.59429 15.9375 5.3125 15.9375C5.03071 15.9375 4.76046 15.8256 4.5612 15.6263C4.36194 15.427 4.25 15.1568 4.25 14.875C4.25 14.5932 4.36194 14.323 4.5612 14.1237C4.76046 13.9244 5.03071 13.8125 5.3125 13.8125C5.59429 13.8125 5.86454 13.9244 6.0638 14.1237C6.26306 14.323 6.375 14.5932 6.375 14.875ZM13.8125 14.875C13.8125 15.1568 13.7006 15.427 13.5013 15.6263C13.302 15.8256 13.0318 15.9375 12.75 15.9375C12.4682 15.9375 12.198 15.8256 11.9987 15.6263C11.7994 15.427 11.6875 15.1568 11.6875 14.875C11.6875 14.5932 11.7994 14.323 11.9987 14.1237C12.198 13.9244 12.4682 13.8125 12.75 13.8125C13.0318 13.8125 13.302 13.9244 13.5013 14.1237C13.7006 14.323 13.8125 14.5932 13.8125 14.875ZM9.5625 5.84375V7.4375H11.1562C11.2971 7.4375 11.4323 7.49347 11.5319 7.5931C11.6315 7.69273 11.6875 7.82785 11.6875 7.96875C11.6875 8.10965 11.6315 8.24477 11.5319 8.3444C11.4323 8.44403 11.2971 8.5 11.1562 8.5H9.5625V10.0938C9.5625 10.2346 9.50653 10.3698 9.4069 10.4694C9.30727 10.569 9.17215 10.625 9.03125 10.625C8.89035 10.625 8.75523 10.569 8.6556 10.4694C8.55597 10.3698 8.5 10.2346 8.5 10.0938V8.5H6.90625C6.76535 8.5 6.63023 8.44403 6.5306 8.3444C6.43097 8.24477 6.375 8.10965 6.375 7.96875C6.375 7.82785 6.43097 7.69273 6.5306 7.5931C6.63023 7.49347 6.76535 7.4375 6.90625 7.4375H8.5V5.84375C8.5 5.70285 8.55597 5.56773 8.6556 5.4681C8.75523 5.36847 8.89035 5.3125 9.03125 5.3125C9.17215 5.3125 9.30727 5.36847 9.4069 5.4681C9.50653 5.56773 9.5625 5.70285 9.5625 5.84375Z" fill="black"/>
</g>
<defs>
<clipPath id="clip0_30_36">
<rect width="17" height="17" fill="white"/>
</clipPath>
</defs>
</svg>
