<svg width="100" height="100" viewBox="0 0 100 100" fill="none" xmlns="http://www.w3.org/2000/svg">
<g clip-path="url(#clip0_49_1448)">
<path d="M49.6126 12.6C49.7351 12.5328 49.8729 12.4984 50.0126 12.5C50.1502 12.4995 50.2857 12.5339 50.4063 12.6C50.5493 12.6857 50.666 12.8089 50.7438 12.9563L93.6001 85.875C93.8251 86.25 93.8188 86.65 93.6126 87.0188C93.5333 87.1701 93.4173 87.299 93.2751 87.3938C93.1513 87.4697 93.0076 87.5067 92.8626 87.5H7.16259C7.01751 87.5071 6.87369 87.47 6.75009 87.3938C6.60793 87.299 6.49187 87.1701 6.41259 87.0188C6.30959 86.8453 6.25628 86.6468 6.25849 86.4451C6.26069 86.2434 6.31833 86.0462 6.42509 85.875L49.2751 12.9563C49.3532 12.8091 49.4699 12.686 49.6126 12.6ZM56.1376 9.7875C55.5189 8.70978 54.6268 7.81438 53.5514 7.19171C52.476 6.56904 51.2553 6.24115 50.0126 6.24115C48.7699 6.24115 47.5492 6.56904 46.4738 7.19171C45.3984 7.81438 44.5063 8.70978 43.8876 9.7875L1.03134 82.7063C-1.82491 87.5688 1.60009 93.75 7.15634 93.75H92.8626C98.4188 93.75 101.85 87.5625 98.9876 82.7063L56.1376 9.7875Z" fill="#F3EF2A"/>
<path d="M43.7627 75C43.7627 74.1792 43.9244 73.3665 44.2384 72.6082C44.5525 71.8499 45.0129 71.1609 45.5933 70.5806C46.1736 70.0002 46.8626 69.5398 47.6209 69.2258C48.3792 68.9117 49.1919 68.75 50.0127 68.75C50.8335 68.75 51.6462 68.9117 52.4045 69.2258C53.1628 69.5398 53.8517 70.0002 54.4321 70.5806C55.0125 71.1609 55.4729 71.8499 55.7869 72.6082C56.101 73.3665 56.2627 74.1792 56.2627 75C56.2627 76.6576 55.6042 78.2473 54.4321 79.4194C53.26 80.5915 51.6703 81.25 50.0127 81.25C48.3551 81.25 46.7654 80.5915 45.5933 79.4194C44.4212 78.2473 43.7627 76.6576 43.7627 75ZM44.3752 37.4688C44.292 36.6803 44.3754 35.8831 44.6202 35.1289C44.865 34.3748 45.2655 33.6805 45.7959 33.0912C46.3263 32.5018 46.9747 32.0306 47.699 31.708C48.4233 31.3854 49.2073 31.2188 50.0002 31.2188C50.7931 31.2188 51.5771 31.3854 52.3014 31.708C53.0257 32.0306 53.674 32.5018 54.2045 33.0912C54.7349 33.6805 55.1354 34.3748 55.3802 35.1289C55.625 35.8831 55.7084 36.6803 55.6252 37.4688L53.4377 59.3875C53.3642 60.2486 52.9702 61.0507 52.3337 61.6352C51.6971 62.2197 50.8644 62.5441 50.0002 62.5441C49.136 62.5441 48.3033 62.2197 47.6667 61.6352C47.0302 61.0507 46.6362 60.2486 46.5627 59.3875L44.3752 37.4688Z" fill="#F3EF2A"/>
</g>
<defs>
<clipPath id="clip0_49_1448">
<rect width="100" height="100" fill="white"/>
</clipPath>
</defs>
</svg>
