<svg width="23" height="15" viewBox="0 0 23 15" fill="none" xmlns="http://www.w3.org/2000/svg">
<path d="M1.5 6.49988C0.671573 6.49988 0 6.94759 0 7.49988C0 8.05216 0.671573 8.49988 1.5 8.49988L19.5 8.49988C20.3284 8.49988 21 8.05216 21 7.49988C21 6.94759 20.3284 6.49988 19.5 6.49988L1.5 6.49988Z" fill="#020D18"/>
<path d="M14.6931 12.7929C14.3025 13.1834 14.3025 13.8166 14.6931 14.2071C15.0836 14.5976 15.7167 14.5976 16.1073 14.2071L22.1073 8.20711C22.4858 7.82853 22.4991 7.21894 22.1373 6.82428L16.6373 0.824282C16.2641 0.417163 15.6316 0.38966 15.2244 0.762852C14.8173 1.13604 14.7898 1.76861 15.163 2.17573L20.016 7.46993L14.6931 12.7929Z" fill="#020D18"/>
</svg>
