<svg width="31" height="30" viewBox="0 0 31 30" fill="none" xmlns="http://www.w3.org/2000/svg">
<rect x="0.638672" y="0.5" width="29.1387" height="29" rx="2.5" fill="#F3EF2A" stroke="#F3EF2A"/>
<path d="M18.1562 15.5C18.1562 16.2045 17.8764 16.8801 17.3783 17.3783C16.8801 17.8764 16.2045 18.1562 15.5 18.1562C14.7955 18.1562 14.1199 17.8764 13.6217 17.3783C13.1236 16.8801 12.8438 16.2045 12.8438 15.5C12.8438 14.7955 13.1236 14.1199 13.6217 13.6217C14.1199 13.1236 14.7955 12.8438 15.5 12.8438C16.2045 12.8438 16.8801 13.1236 17.3783 13.6217C17.8764 14.1199 18.1562 14.7955 18.1562 15.5Z" fill="black"/>
<path d="M7 15.5C7 15.5 10.1875 9.65625 15.5 9.65625C20.8125 9.65625 24 15.5 24 15.5C24 15.5 20.8125 21.3438 15.5 21.3438C10.1875 21.3438 7 15.5 7 15.5ZM15.5 19.2188C16.4863 19.2188 17.4322 18.827 18.1296 18.1296C18.827 17.4322 19.2188 16.4863 19.2188 15.5C19.2188 14.5137 18.827 13.5678 18.1296 12.8704C17.4322 12.173 16.4863 11.7812 15.5 11.7812C14.5137 11.7812 13.5678 12.173 12.8704 12.8704C12.173 13.5678 11.7812 14.5137 11.7812 15.5C11.7812 16.4863 12.173 17.4322 12.8704 18.1296C13.5678 18.827 14.5137 19.2188 15.5 19.2188Z" fill="black"/>
</svg>
