<svg width="25" height="26" viewBox="0 0 25 26" fill="none" xmlns="http://www.w3.org/2000/svg">
<g clip-path="url(#clip0_27_1680)">
<path d="M12.73 0.927002C9.45881 0.927002 9.04746 0.94207 7.76217 0.999327C6.47689 1.0596 5.60145 1.26151 4.8345 1.55985C4.03002 1.86244 3.30134 2.33709 2.69939 2.95061C2.08624 3.55286 1.61165 4.28146 1.30863 5.08572C1.01029 5.85116 0.806871 6.72811 0.748107 8.00887C0.690849 9.29717 0.675781 9.70702 0.675781 12.9828C0.675781 16.2555 0.690849 16.6653 0.748107 17.9506C0.808378 19.2344 1.01029 20.1098 1.30863 20.8768C1.61752 21.6694 2.02887 22.3414 2.69939 23.0119C3.3684 23.6824 4.04042 24.0953 4.83299 24.4027C5.60145 24.701 6.47538 24.9044 7.75916 24.9632C9.04595 25.0204 9.4558 25.0355 12.73 25.0355C16.0043 25.0355 16.4126 25.0204 17.6994 24.9632C18.9817 24.9029 19.8601 24.701 20.6271 24.4027C21.431 24.0999 22.1592 23.6253 22.7607 23.0119C23.4312 22.3414 23.8425 21.6694 24.1514 20.8768C24.4483 20.1098 24.6517 19.2344 24.712 17.9506C24.7692 16.6653 24.7843 16.2555 24.7843 12.9813C24.7843 9.70702 24.7692 9.29717 24.712 8.01038C24.6517 6.72811 24.4483 5.85116 24.1514 5.08572C23.8485 4.28144 23.3739 3.55283 22.7607 2.95061C22.1589 2.33686 21.4302 1.86218 20.6256 1.55985C19.8571 1.26151 18.9802 1.05809 17.6979 0.999327C16.4111 0.94207 16.0028 0.927002 12.727 0.927002H12.7315H12.73ZM11.6497 3.09978H12.7315C15.95 3.09978 16.3312 3.11033 17.6015 3.16909C18.7767 3.22183 19.4156 3.41922 19.8405 3.58346C20.4026 3.80194 20.8049 4.06412 21.2268 4.48602C21.6487 4.90792 21.9093 5.30872 22.1278 5.87226C22.2936 6.29566 22.4895 6.93454 22.5422 8.10983C22.601 9.38005 22.613 9.76126 22.613 12.9782C22.613 16.1952 22.601 16.5779 22.5422 17.8482C22.4895 19.0234 22.2921 19.6608 22.1278 20.0857C21.9346 20.6091 21.6261 21.0824 21.2253 21.4705C20.8034 21.8924 20.4026 22.153 19.839 22.3715C19.4171 22.5373 18.7783 22.7331 17.6015 22.7874C16.3312 22.8446 15.95 22.8582 12.7315 22.8582C9.51305 22.8582 9.13033 22.8446 7.86012 22.7874C6.68483 22.7331 6.04746 22.5373 5.62254 22.3715C5.09894 22.1785 4.62525 21.8706 4.23631 21.4705C3.83513 21.0818 3.52619 20.6081 3.33224 20.0842C3.168 19.6608 2.97061 19.0219 2.91787 17.8466C2.86061 16.5764 2.84856 16.1952 2.84856 12.9752C2.84856 9.75674 2.86061 9.37703 2.91787 8.10681C2.97212 6.93153 3.168 6.29265 3.33374 5.86774C3.55223 5.30571 3.81441 4.9034 4.23631 4.4815C4.6582 4.0596 5.05901 3.79893 5.62254 3.58044C6.04746 3.4147 6.68483 3.21882 7.86012 3.16457C8.97212 3.11334 9.40306 3.09827 11.6497 3.09677V3.09978ZM19.1655 5.10079C18.9755 5.10079 18.7874 5.1382 18.6119 5.2109C18.4364 5.28359 18.277 5.39014 18.1427 5.52446C18.0083 5.65878 17.9018 5.81824 17.8291 5.99374C17.7564 6.16924 17.719 6.35734 17.719 6.5473C17.719 6.73725 17.7564 6.92535 17.8291 7.10085C17.9018 7.27635 18.0083 7.43581 18.1427 7.57013C18.277 7.70445 18.4364 7.811 18.6119 7.8837C18.7874 7.95639 18.9755 7.99381 19.1655 7.99381C19.5491 7.99381 19.9171 7.84141 20.1883 7.57013C20.4596 7.29886 20.612 6.93093 20.612 6.5473C20.612 6.16366 20.4596 5.79573 20.1883 5.52446C19.9171 5.25319 19.5491 5.10079 19.1655 5.10079ZM12.7315 6.79139C11.9104 6.77858 11.095 6.92924 10.3327 7.2346C9.57041 7.53996 8.87646 7.99391 8.29128 8.57003C7.7061 9.14616 7.24138 9.83293 6.92416 10.5904C6.60695 11.3478 6.44359 12.1608 6.44359 12.982C6.44359 13.8032 6.60695 14.6162 6.92416 15.3736C7.24138 16.1311 7.7061 16.8179 8.29128 17.394C8.87646 17.9701 9.57041 18.4241 10.3327 18.7294C11.095 19.0348 11.9104 19.1854 12.7315 19.1726C14.3567 19.1473 15.9066 18.4839 17.0469 17.3257C18.1872 16.1675 18.8263 14.6073 18.8263 12.982C18.8263 11.3567 18.1872 9.79654 17.0469 8.63833C15.9066 7.48012 14.3567 6.81675 12.7315 6.79139ZM12.7315 8.96267C13.7973 8.96267 14.8195 9.38605 15.5731 10.1397C16.3267 10.8933 16.7501 11.9155 16.7501 12.9813C16.7501 14.047 16.3267 15.0692 15.5731 15.8228C14.8195 16.5765 13.7973 16.9998 12.7315 16.9998C11.6657 16.9998 10.6436 16.5765 9.88997 15.8228C9.13634 15.0692 8.71295 14.047 8.71295 12.9813C8.71295 11.9155 9.13634 10.8933 9.88997 10.1397C10.6436 9.38605 11.6657 8.96267 12.7315 8.96267Z" fill="#FDFBF9"/>
</g>
<defs>
<clipPath id="clip0_27_1680">
<rect width="24.1085" height="24.1085" fill="white" transform="translate(0.675781 0.927002)"/>
</clipPath>
</defs>
</svg>
