<svg width="18" height="17" viewBox="0 0 18 17" fill="none" xmlns="http://www.w3.org/2000/svg">
<g clip-path="url(#clip0_27_587)">
<path d="M9.47803 0C7.17134 0 6.88128 0.010625 5.97497 0.051C5.06865 0.0935 4.45134 0.235875 3.91053 0.44625C3.34325 0.65962 2.82942 0.994315 2.40496 1.42694C1.97261 1.85161 1.63795 2.36538 1.42428 2.9325C1.2139 3.47225 1.07046 4.09062 1.02903 4.99375C0.988652 5.90219 0.978027 6.19119 0.978027 8.50106C0.978027 10.8088 0.988652 11.0978 1.02903 12.0041C1.07153 12.9094 1.2139 13.5267 1.42428 14.0675C1.64209 14.6264 1.93215 15.1002 2.40496 15.5731C2.87671 16.0459 3.35059 16.337 3.90946 16.5537C4.45134 16.7641 5.06759 16.9076 5.97284 16.949C6.88022 16.9894 7.16921 17 9.47803 17C11.7868 17 12.0748 16.9894 12.9822 16.949C13.8863 16.9065 14.5058 16.7641 15.0466 16.5537C15.6135 16.3403 16.127 16.0056 16.5511 15.5731C17.0239 15.1002 17.314 14.6264 17.5318 14.0675C17.7411 13.5267 17.8845 12.9094 17.927 12.0041C17.9674 11.0978 17.978 10.8088 17.978 8.5C17.978 6.19119 17.9674 5.90219 17.927 4.99481C17.8845 4.09063 17.7411 3.47225 17.5318 2.9325C17.3181 2.36536 16.9835 1.85159 16.5511 1.42694C16.1268 0.994155 15.6129 0.659436 15.0455 0.44625C14.5037 0.235875 13.8853 0.0924375 12.9811 0.051C12.0737 0.010625 11.7858 0 9.4759 0H9.47909H9.47803ZM8.71621 1.53212H9.47909C11.7486 1.53212 12.0174 1.53956 12.9131 1.581C13.7418 1.61819 14.1923 1.75738 14.492 1.87319C14.8883 2.02725 15.172 2.21213 15.4695 2.50962C15.767 2.80713 15.9508 3.08975 16.1048 3.48713C16.2217 3.78569 16.3598 4.23619 16.397 5.06494C16.4385 5.96063 16.447 6.22944 16.447 8.49788C16.447 10.7663 16.4385 11.0362 16.397 11.9319C16.3598 12.7606 16.2207 13.2101 16.1048 13.5097C15.9686 13.8788 15.7511 14.2125 15.4684 14.4861C15.1709 14.7836 14.8883 14.9674 14.4909 15.1215C14.1934 15.2384 13.7429 15.3765 12.9131 15.4148C12.0174 15.4551 11.7486 15.4647 9.47909 15.4647C7.20959 15.4647 6.93971 15.4551 6.04403 15.4148C5.21528 15.3765 4.76584 15.2384 4.46621 15.1215C4.097 14.9854 3.76297 14.7683 3.48871 14.4861C3.20583 14.212 2.98798 13.878 2.85121 13.5086C2.7354 13.2101 2.59621 12.7596 2.55903 11.9308C2.51865 11.0351 2.51015 10.7663 2.51015 8.49575C2.51015 6.22625 2.51865 5.9585 2.55903 5.06281C2.59728 4.23406 2.7354 3.78356 2.85228 3.48394C3.00634 3.08763 3.19121 2.80394 3.48871 2.50644C3.78621 2.20894 4.06884 2.02513 4.46621 1.87106C4.76584 1.75419 5.21528 1.61606 6.04403 1.57781C6.82815 1.54169 7.13203 1.53106 8.71621 1.53V1.53212ZM14.016 2.94313C13.882 2.94313 13.7494 2.96951 13.6256 3.02077C13.5019 3.07203 13.3894 3.14716 13.2947 3.24188C13.2 3.33659 13.1249 3.44904 13.0736 3.57279C13.0223 3.69654 12.996 3.82918 12.996 3.96312C12.996 4.09707 13.0223 4.22971 13.0736 4.35346C13.1249 4.47721 13.2 4.58966 13.2947 4.68437C13.3894 4.77909 13.5019 4.85422 13.6256 4.90548C13.7494 4.95674 13.882 4.98313 14.016 4.98313C14.2865 4.98313 14.5459 4.87566 14.7372 4.68437C14.9285 4.49309 15.036 4.23365 15.036 3.96312C15.036 3.6926 14.9285 3.43316 14.7372 3.24188C14.5459 3.05059 14.2865 2.94313 14.016 2.94313ZM9.47909 4.13525C8.9001 4.12622 8.3251 4.23245 7.78757 4.44777C7.25003 4.6631 6.7607 4.9832 6.34806 5.38945C5.93543 5.7957 5.60773 6.27998 5.38405 6.81409C5.16037 7.3482 5.04517 7.92147 5.04517 8.50053C5.04517 9.07959 5.16037 9.65286 5.38405 10.187C5.60773 10.7211 5.93543 11.2054 6.34806 11.6116C6.7607 12.0179 7.25003 12.338 7.78757 12.5533C8.3251 12.7686 8.9001 12.8748 9.47909 12.8658C10.625 12.8479 11.718 12.3802 12.5221 11.5635C13.3261 10.7467 13.7768 9.64662 13.7768 8.50053C13.7768 7.35444 13.3261 6.25431 12.5221 5.43761C11.718 4.6209 10.625 4.15313 9.47909 4.13525ZM9.47909 5.66631C10.2306 5.66631 10.9514 5.96486 11.4828 6.49628C12.0142 7.0277 12.3128 7.74846 12.3128 8.5C12.3128 9.25154 12.0142 9.9723 11.4828 10.5037C10.9514 11.0351 10.2306 11.3337 9.47909 11.3337C8.72755 11.3337 8.00679 11.0351 7.47537 10.5037C6.94395 9.9723 6.6454 9.25154 6.6454 8.5C6.6454 7.74846 6.94395 7.0277 7.47537 6.49628C8.00679 5.96486 8.72755 5.66631 9.47909 5.66631Z" fill="#F3EF2A"/>
</g>
<defs>
<clipPath id="clip0_27_587">
<rect width="17" height="17" fill="white" transform="translate(0.978027)"/>
</clipPath>
</defs>
</svg>
