<svg width="18" height="17" viewBox="0 0 18 17" fill="none" xmlns="http://www.w3.org/2000/svg">
<g clip-path="url(#clip0_22_59)">
<path d="M9.47821 0C7.17152 0 6.88146 0.010625 5.97515 0.051C5.06884 0.0935 4.45152 0.235875 3.91071 0.44625C3.34344 0.65962 2.82961 0.994315 2.40515 1.42694C1.97279 1.85161 1.63814 2.36538 1.42446 2.9325C1.21409 3.47225 1.07065 4.09062 1.02921 4.99375C0.988835 5.90219 0.97821 6.19119 0.97821 8.50106C0.97821 10.8088 0.988835 11.0978 1.02921 12.0041C1.07171 12.9094 1.21409 13.5267 1.42446 14.0675C1.64227 14.6264 1.93234 15.1002 2.40515 15.5731C2.8769 16.0459 3.35077 16.337 3.90965 16.5537C4.45152 16.7641 5.06777 16.9076 5.97302 16.949C6.8804 16.9894 7.1694 17 9.47821 17C11.787 17 12.075 16.9894 12.9823 16.949C13.8865 16.9065 14.506 16.7641 15.0468 16.5537C15.6137 16.3403 16.1271 16.0056 16.5513 15.5731C17.0241 15.1002 17.3141 14.6264 17.532 14.0675C17.7413 13.5267 17.8847 12.9094 17.9272 12.0041C17.9676 11.0978 17.9782 10.8088 17.9782 8.5C17.9782 6.19119 17.9676 5.90219 17.9272 4.99481C17.8847 4.09063 17.7413 3.47225 17.532 2.9325C17.3183 2.36536 16.9837 1.85159 16.5513 1.42694C16.1269 0.994155 15.6131 0.659436 15.0457 0.44625C14.5038 0.235875 13.8855 0.0924375 12.9813 0.051C12.0739 0.010625 11.786 0 9.47609 0H9.47927H9.47821ZM8.7164 1.53212H9.47927C11.7488 1.53212 12.0176 1.53956 12.9133 1.581C13.742 1.61819 14.1925 1.75738 14.4921 1.87319C14.8885 2.02725 15.1721 2.21213 15.4696 2.50962C15.7671 2.80713 15.951 3.08975 16.105 3.48713C16.2219 3.78569 16.36 4.23619 16.3972 5.06494C16.4386 5.96063 16.4471 6.22944 16.4471 8.49788C16.4471 10.7663 16.4386 11.0362 16.3972 11.9319C16.36 12.7606 16.2208 13.2101 16.105 13.5097C15.9687 13.8788 15.7512 14.2125 15.4686 14.4861C15.1711 14.7836 14.8885 14.9674 14.4911 15.1215C14.1936 15.2384 13.7431 15.3765 12.9133 15.4148C12.0176 15.4551 11.7488 15.4647 9.47927 15.4647C7.20977 15.4647 6.9399 15.4551 6.04421 15.4148C5.21546 15.3765 4.76602 15.2384 4.4664 15.1215C4.09718 14.9854 3.76316 14.7683 3.4889 14.4861C3.20601 14.212 2.98817 13.878 2.8514 13.5086C2.73559 13.2101 2.5964 12.7596 2.55921 11.9308C2.51884 11.0351 2.51034 10.7663 2.51034 8.49575C2.51034 6.22625 2.51884 5.9585 2.55921 5.06281C2.59746 4.23406 2.73559 3.78356 2.85246 3.48394C3.00652 3.08763 3.1914 2.80394 3.4889 2.50644C3.7864 2.20894 4.06902 2.02513 4.4664 1.87106C4.76602 1.75419 5.21546 1.61606 6.04421 1.57781C6.82834 1.54169 7.13221 1.53106 8.7164 1.53V1.53212ZM14.0161 2.94313C13.8822 2.94313 13.7496 2.96951 13.6258 3.02077C13.5021 3.07203 13.3896 3.14716 13.2949 3.24188C13.2002 3.33659 13.1251 3.44904 13.0738 3.57279C13.0225 3.69654 12.9961 3.82918 12.9961 3.96312C12.9961 4.09707 13.0225 4.22971 13.0738 4.35346C13.1251 4.47721 13.2002 4.58966 13.2949 4.68437C13.3896 4.77909 13.5021 4.85422 13.6258 4.90548C13.7496 4.95674 13.8822 4.98313 14.0161 4.98313C14.2867 4.98313 14.5461 4.87566 14.7374 4.68437C14.9287 4.49309 15.0361 4.23365 15.0361 3.96312C15.0361 3.6926 14.9287 3.43316 14.7374 3.24188C14.5461 3.05059 14.2867 2.94313 14.0161 2.94313ZM9.47927 4.13525C8.90029 4.12622 8.32529 4.23245 7.78775 4.44777C7.25021 4.6631 6.76088 4.9832 6.34825 5.38945C5.93561 5.7957 5.60791 6.27998 5.38423 6.81409C5.16055 7.3482 5.04535 7.92147 5.04535 8.50053C5.04535 9.07959 5.16055 9.65286 5.38423 10.187C5.60791 10.7211 5.93561 11.2054 6.34825 11.6116C6.76088 12.0179 7.25021 12.338 7.78775 12.5533C8.32529 12.7686 8.90029 12.8748 9.47927 12.8658C10.6252 12.8479 11.7182 12.3802 12.5222 11.5635C13.3263 10.7467 13.777 9.64662 13.777 8.50053C13.777 7.35444 13.3263 6.25431 12.5222 5.43761C11.7182 4.6209 10.6252 4.15313 9.47927 4.13525ZM9.47927 5.66631C10.2308 5.66631 10.9516 5.96486 11.483 6.49628C12.0144 7.0277 12.313 7.74846 12.313 8.5C12.313 9.25154 12.0144 9.9723 11.483 10.5037C10.9516 11.0351 10.2308 11.3337 9.47927 11.3337C8.72773 11.3337 8.00697 11.0351 7.47555 10.5037C6.94413 9.9723 6.64559 9.25154 6.64559 8.5C6.64559 7.74846 6.94413 7.0277 7.47555 6.49628C8.00697 5.96486 8.72773 5.66631 9.47927 5.66631Z" fill="#F3EF2A"/>
</g>
<defs>
<clipPath id="clip0_22_59">
<rect width="17" height="17" fill="white" transform="translate(0.97821)"/>
</clipPath>
</defs>
</svg>
