<svg width="17" height="17" viewBox="0 0 17 17" fill="none" xmlns="http://www.w3.org/2000/svg">
<g clip-path="url(#clip0_27_949)">
<path d="M8.7602 0.682556C6.55811 0.682556 6.2812 0.692699 5.41598 0.731244C4.55077 0.771816 3.96145 0.907735 3.44516 1.10857C2.9036 1.31227 2.41308 1.63178 2.00786 2.04479C1.59511 2.45021 1.27563 2.94068 1.07164 3.48208C0.870809 3.99736 0.733876 4.58769 0.694317 5.44986C0.655773 6.31711 0.64563 6.59301 0.64563 8.79814C0.64563 11.0012 0.655773 11.2771 0.694317 12.1424C0.73489 13.0066 0.870809 13.5959 1.07164 14.1122C1.27958 14.6457 1.55649 15.0981 2.00786 15.5495C2.45822 16.0008 2.91061 16.2788 3.44414 16.4857C3.96145 16.6865 4.54975 16.8234 5.41395 16.863C6.28018 16.9016 6.55608 16.9117 8.7602 16.9117C10.9643 16.9117 11.2392 16.9016 12.1054 16.863C12.9686 16.8224 13.56 16.6865 14.0763 16.4857C14.6175 16.2819 15.1076 15.9624 15.5125 15.5495C15.9639 15.0981 16.2408 14.6457 16.4488 14.1122C16.6486 13.5959 16.7855 13.0066 16.8261 12.1424C16.8646 11.2771 16.8748 11.0012 16.8748 8.79712C16.8748 6.59301 16.8646 6.31711 16.8261 5.45088C16.7855 4.58769 16.6486 3.99736 16.4488 3.48208C16.2448 2.94066 15.9253 2.45019 15.5125 2.04479C15.1074 1.63163 14.6169 1.31209 14.0752 1.10857C13.5579 0.907735 12.9676 0.770802 12.1044 0.731244C11.2382 0.692699 10.9633 0.682556 8.75817 0.682556H8.76121H8.7602ZM8.03293 2.14521H8.76121C10.9278 2.14521 11.1844 2.15231 12.0395 2.19187C12.8307 2.22737 13.2607 2.36024 13.5468 2.4708C13.9251 2.61788 14.1959 2.79437 14.48 3.07838C14.764 3.36239 14.9394 3.6322 15.0865 4.01156C15.1981 4.29658 15.33 4.72665 15.3655 5.51783C15.405 6.3729 15.4131 6.62952 15.4131 8.7951C15.4131 10.9607 15.405 11.2183 15.3655 12.0734C15.33 12.8646 15.1971 13.2936 15.0865 13.5796C14.9564 13.932 14.7488 14.2506 14.4789 14.5118C14.1949 14.7958 13.9251 14.9713 13.5458 15.1184C13.2618 15.2299 12.8317 15.3618 12.0395 15.3983C11.1844 15.4369 10.9278 15.446 8.76121 15.446C6.59462 15.446 6.33699 15.4369 5.48191 15.3983C4.69074 15.3618 4.26168 15.2299 3.97565 15.1184C3.62317 14.9885 3.30429 14.7812 3.04247 14.5118C2.77241 14.2501 2.56444 13.9313 2.43388 13.5786C2.32332 13.2936 2.19044 12.8635 2.15494 12.0724C2.1164 11.2173 2.10828 10.9607 2.10828 8.79307C2.10828 6.62648 2.1164 6.37087 2.15494 5.5158C2.19146 4.72463 2.32332 4.29455 2.43489 4.00852C2.58197 3.63017 2.75846 3.35935 3.04247 3.07534C3.32648 2.79133 3.59629 2.61585 3.97565 2.46878C4.26168 2.3572 4.69074 2.22534 5.48191 2.18882C6.23048 2.15434 6.52058 2.14419 8.03293 2.14318V2.14521ZM13.0924 3.49223C12.9645 3.49223 12.8379 3.51741 12.7197 3.56635C12.6016 3.61528 12.4942 3.68701 12.4038 3.77743C12.3134 3.86785 12.2417 3.9752 12.1927 4.09334C12.1438 4.21148 12.1186 4.3381 12.1186 4.46597C12.1186 4.59385 12.1438 4.72047 12.1927 4.83861C12.2417 4.95675 12.3134 5.0641 12.4038 5.15452C12.4942 5.24494 12.6016 5.31666 12.7197 5.3656C12.8379 5.41454 12.9645 5.43972 13.0924 5.43972C13.3506 5.43972 13.5983 5.33713 13.7809 5.15452C13.9635 4.9719 14.0661 4.72423 14.0661 4.46597C14.0661 4.20772 13.9635 3.96004 13.7809 3.77743C13.5983 3.59482 13.3506 3.49223 13.0924 3.49223ZM8.76121 4.63029C8.20848 4.62167 7.65955 4.72309 7.14639 4.92865C6.63323 5.1342 6.16609 5.43979 5.77216 5.82762C5.37824 6.21545 5.0654 6.67777 4.85186 7.18766C4.63832 7.69755 4.52835 8.24483 4.52835 8.79763C4.52835 9.35043 4.63832 9.89771 4.85186 10.4076C5.0654 10.9175 5.37824 11.3798 5.77216 11.7676C6.16609 12.1555 6.63323 12.4611 7.14639 12.6666C7.65955 12.8722 8.20848 12.9736 8.76121 12.965C9.8552 12.9479 10.8986 12.5013 11.6662 11.7217C12.4338 10.942 12.864 9.89175 12.864 8.79763C12.864 7.70351 12.4338 6.65327 11.6662 5.8736C10.8986 5.09393 9.8552 4.64736 8.76121 4.63029ZM8.76121 6.09193C9.47868 6.09193 10.1668 6.37694 10.6741 6.88426C11.1814 7.39159 11.4664 8.07966 11.4664 8.79712C11.4664 9.51459 11.1814 10.2027 10.6741 10.71C10.1668 11.2173 9.47868 11.5023 8.76121 11.5023C8.04375 11.5023 7.35567 11.2173 6.84835 10.71C6.34103 10.2027 6.05602 9.51459 6.05602 8.79712C6.05602 8.07966 6.34103 7.39159 6.84835 6.88426C7.35567 6.37694 8.04375 6.09193 8.76121 6.09193Z" fill="#FDFBF9"/>
</g>
<defs>
<clipPath id="clip0_27_949">
<rect width="16.2291" height="16.2291" fill="white" transform="translate(0.64563 0.682556)"/>
</clipPath>
</defs>
</svg>
