<svg width="17" height="17" viewBox="0 0 17 17" fill="none" xmlns="http://www.w3.org/2000/svg">
<g clip-path="url(#clip0_27_907)">
<path d="M8.33014 0.682556C6.12805 0.682556 5.85114 0.692699 4.98593 0.731244C4.12071 0.771816 3.53139 0.907735 3.0151 1.10857C2.47355 1.31227 1.98302 1.63178 1.57781 2.04479C1.16506 2.45021 0.845578 2.94068 0.641591 3.48208C0.440755 3.99736 0.303822 4.58769 0.264264 5.44986C0.225719 6.31711 0.215576 6.59301 0.215576 8.79814C0.215576 11.0012 0.225719 11.2771 0.264264 12.1424C0.304836 13.0066 0.440755 13.5959 0.641591 14.1122C0.849527 14.6457 1.12644 15.0981 1.57781 15.5495C2.02817 16.0008 2.48056 16.2788 3.01409 16.4857C3.53139 16.6865 4.1197 16.8234 4.9839 16.863C5.85013 16.9016 6.12603 16.9117 8.33014 16.9117C10.5343 16.9117 10.8091 16.9016 11.6754 16.863C12.5386 16.8224 13.1299 16.6865 13.6462 16.4857C14.1874 16.2819 14.6776 15.9624 15.0825 15.5495C15.5339 15.0981 15.8108 14.6457 16.0187 14.1122C16.2185 13.5959 16.3555 13.0066 16.396 12.1424C16.4346 11.2771 16.4447 11.0012 16.4447 8.79712C16.4447 6.59301 16.4346 6.31711 16.396 5.45088C16.3555 4.58769 16.2185 3.99736 16.0187 3.48208C15.8147 2.94066 15.4953 2.45019 15.0825 2.04479C14.6774 1.63163 14.1868 1.31209 13.6452 1.10857C13.1279 0.907735 12.5375 0.770802 11.6744 0.731244C10.8081 0.692699 10.5333 0.682556 8.32812 0.682556H8.33116H8.33014ZM7.60288 2.14521H8.33116C10.4977 2.14521 10.7544 2.15231 11.6094 2.19187C12.4006 2.22737 12.8307 2.36024 13.1167 2.4708C13.4951 2.61788 13.7659 2.79437 14.0499 3.07838C14.3339 3.36239 14.5094 3.6322 14.6565 4.01156C14.768 4.29658 14.8999 4.72665 14.9354 5.51783C14.975 6.3729 14.9831 6.62952 14.9831 8.7951C14.9831 10.9607 14.975 11.2183 14.9354 12.0734C14.8999 12.8646 14.767 13.2936 14.6565 13.5796C14.5264 13.932 14.3187 14.2506 14.0489 14.5118C13.7649 14.7958 13.4951 14.9713 13.1157 15.1184C12.8317 15.2299 12.4016 15.3618 11.6094 15.3983C10.7544 15.4369 10.4977 15.446 8.33116 15.446C6.16457 15.446 5.90693 15.4369 5.05186 15.3983C4.26069 15.3618 3.83163 15.2299 3.54559 15.1184C3.19311 14.9885 2.87424 14.7812 2.61242 14.5118C2.34235 14.2501 2.13439 13.9313 2.00382 13.5786C1.89326 13.2936 1.76039 12.8635 1.72489 12.0724C1.68634 11.2173 1.67823 10.9607 1.67823 8.79307C1.67823 6.62648 1.68634 6.37087 1.72489 5.5158C1.7614 4.72463 1.89326 4.29455 2.00484 4.00852C2.15192 3.63017 2.32841 3.35935 2.61242 3.07534C2.89643 2.79133 3.16624 2.61585 3.54559 2.46878C3.83163 2.3572 4.26069 2.22534 5.05186 2.18882C5.80043 2.15434 6.09052 2.14419 7.60288 2.14318V2.14521ZM12.6623 3.49223C12.5344 3.49223 12.4078 3.51741 12.2897 3.56635C12.1715 3.61528 12.0642 3.68701 11.9738 3.77743C11.8833 3.86785 11.8116 3.9752 11.7627 4.09334C11.7137 4.21148 11.6886 4.3381 11.6886 4.46597C11.6886 4.59385 11.7137 4.72047 11.7627 4.83861C11.8116 4.95675 11.8833 5.0641 11.9738 5.15452C12.0642 5.24494 12.1715 5.31666 12.2897 5.3656C12.4078 5.41454 12.5344 5.43972 12.6623 5.43972C12.9206 5.43972 13.1682 5.33713 13.3509 5.15452C13.5335 4.9719 13.6361 4.72423 13.6361 4.46597C13.6361 4.20772 13.5335 3.96004 13.3509 3.77743C13.1682 3.59482 12.9206 3.49223 12.6623 3.49223ZM8.33116 4.63029C7.77843 4.62167 7.2295 4.72309 6.71634 4.92865C6.20318 5.1342 5.73603 5.43979 5.34211 5.82762C4.94818 6.21545 4.63534 6.67777 4.4218 7.18766C4.20827 7.69755 4.0983 8.24483 4.0983 8.79763C4.0983 9.35043 4.20827 9.89771 4.4218 10.4076C4.63534 10.9175 4.94818 11.3798 5.34211 11.7676C5.73603 12.1555 6.20318 12.4611 6.71634 12.6666C7.2295 12.8722 7.77843 12.9736 8.33116 12.965C9.42515 12.9479 10.4685 12.5013 11.2362 11.7217C12.0038 10.942 12.434 9.89175 12.434 8.79763C12.434 7.70351 12.0038 6.65327 11.2362 5.8736C10.4685 5.09393 9.42515 4.64736 8.33116 4.63029ZM8.33116 6.09193C9.04862 6.09193 9.7367 6.37694 10.244 6.88426C10.7513 7.39159 11.0364 8.07966 11.0364 8.79712C11.0364 9.51459 10.7513 10.2027 10.244 10.71C9.7367 11.2173 9.04862 11.5023 8.33116 11.5023C7.6137 11.5023 6.92562 11.2173 6.4183 10.71C5.91098 10.2027 5.62597 9.51459 5.62597 8.79712C5.62597 8.07966 5.91098 7.39159 6.4183 6.88426C6.92562 6.37694 7.6137 6.09193 8.33116 6.09193Z" fill="#FDFBF9"/>
</g>
<defs>
<clipPath id="clip0_27_907">
<rect width="16.2291" height="16.2291" fill="white" transform="translate(0.215576 0.682556)"/>
</clipPath>
</defs>
</svg>
