<svg width="18" height="17" viewBox="0 0 18 17" fill="none" xmlns="http://www.w3.org/2000/svg">
<g clip-path="url(#clip0_27_1485)">
<path d="M9.47852 0C7.17183 0 6.88177 0.010625 5.97545 0.051C5.06914 0.0935 4.45183 0.235875 3.91102 0.44625C3.34374 0.65962 2.82991 0.994315 2.40545 1.42694C1.9731 1.85161 1.63844 2.36538 1.42477 2.9325C1.21439 3.47225 1.07095 4.09062 1.02952 4.99375C0.989141 5.90219 0.978516 6.19119 0.978516 8.50106C0.978516 10.8088 0.989141 11.0978 1.02952 12.0041C1.07202 12.9094 1.21439 13.5267 1.42477 14.0675C1.64258 14.6264 1.93264 15.1002 2.40545 15.5731C2.8772 16.0459 3.35108 16.337 3.90995 16.5537C4.45183 16.7641 5.06808 16.9076 5.97333 16.949C6.8807 16.9894 7.1697 17 9.47852 17C11.7873 17 12.0753 16.9894 12.9826 16.949C13.8868 16.9065 14.5063 16.7641 15.0471 16.5537C15.614 16.3403 16.1274 16.0056 16.5516 15.5731C17.0244 15.1002 17.3145 14.6264 17.5323 14.0675C17.7416 13.5267 17.885 12.9094 17.9275 12.0041C17.9679 11.0978 17.9785 10.8088 17.9785 8.5C17.9785 6.19119 17.9679 5.90219 17.9275 4.99481C17.885 4.09063 17.7416 3.47225 17.5323 2.9325C17.3186 2.36536 16.984 1.85159 16.5516 1.42694C16.1272 0.994155 15.6134 0.659436 15.046 0.44625C14.5041 0.235875 13.8858 0.0924375 12.9816 0.051C12.0742 0.010625 11.7863 0 9.47639 0H9.47958H9.47852ZM8.7167 1.53212H9.47958C11.7491 1.53212 12.0179 1.53956 12.9136 1.581C13.7423 1.61819 14.1928 1.75738 14.4925 1.87319C14.8888 2.02725 15.1725 2.21213 15.47 2.50962C15.7675 2.80713 15.9513 3.08975 16.1053 3.48713C16.2222 3.78569 16.3603 4.23619 16.3975 5.06494C16.439 5.96063 16.4475 6.22944 16.4475 8.49788C16.4475 10.7663 16.439 11.0362 16.3975 11.9319C16.3603 12.7606 16.2211 13.2101 16.1053 13.5097C15.9691 13.8788 15.7515 14.2125 15.4689 14.4861C15.1714 14.7836 14.8888 14.9674 14.4914 15.1215C14.1939 15.2384 13.7434 15.3765 12.9136 15.4148C12.0179 15.4551 11.7491 15.4647 9.47958 15.4647C7.21008 15.4647 6.9402 15.4551 6.04452 15.4148C5.21577 15.3765 4.76633 15.2384 4.4667 15.1215C4.09748 14.9854 3.76346 14.7683 3.4892 14.4861C3.20631 14.212 2.98847 13.878 2.8517 13.5086C2.73589 13.2101 2.5967 12.7596 2.55952 11.9308C2.51914 11.0351 2.51064 10.7663 2.51064 8.49575C2.51064 6.22625 2.51914 5.9585 2.55952 5.06281C2.59777 4.23406 2.73589 3.78356 2.85277 3.48394C3.00683 3.08763 3.1917 2.80394 3.4892 2.50644C3.7867 2.20894 4.06933 2.02513 4.4667 1.87106C4.76633 1.75419 5.21577 1.61606 6.04452 1.57781C6.82864 1.54169 7.13252 1.53106 8.7167 1.53V1.53212ZM14.0165 2.94313C13.8825 2.94313 13.7499 2.96951 13.6261 3.02077C13.5024 3.07203 13.3899 3.14716 13.2952 3.24188C13.2005 3.33659 13.1254 3.44904 13.0741 3.57279C13.0228 3.69654 12.9965 3.82918 12.9965 3.96312C12.9965 4.09707 13.0228 4.22971 13.0741 4.35346C13.1254 4.47721 13.2005 4.58966 13.2952 4.68437C13.3899 4.77909 13.5024 4.85422 13.6261 4.90548C13.7499 4.95674 13.8825 4.98313 14.0165 4.98313C14.287 4.98313 14.5464 4.87566 14.7377 4.68437C14.929 4.49309 15.0365 4.23365 15.0365 3.96312C15.0365 3.6926 14.929 3.43316 14.7377 3.24188C14.5464 3.05059 14.287 2.94313 14.0165 2.94313ZM9.47958 4.13525C8.90059 4.12622 8.32559 4.23245 7.78805 4.44777C7.25052 4.6631 6.76119 4.9832 6.34855 5.38945C5.93591 5.7957 5.60821 6.27998 5.38453 6.81409C5.16085 7.3482 5.04566 7.92147 5.04566 8.50053C5.04566 9.07959 5.16085 9.65286 5.38453 10.187C5.60821 10.7211 5.93591 11.2054 6.34855 11.6116C6.76119 12.0179 7.25052 12.338 7.78805 12.5533C8.32559 12.7686 8.90059 12.8748 9.47958 12.8658C10.6255 12.8479 11.7185 12.3802 12.5226 11.5635C13.3266 10.7467 13.7773 9.64662 13.7773 8.50053C13.7773 7.35444 13.3266 6.25431 12.5226 5.43761C11.7185 4.6209 10.6255 4.15313 9.47958 4.13525ZM9.47958 5.66631C10.2311 5.66631 10.9519 5.96486 11.4833 6.49628C12.0147 7.0277 12.3133 7.74846 12.3133 8.5C12.3133 9.25154 12.0147 9.9723 11.4833 10.5037C10.9519 11.0351 10.2311 11.3337 9.47958 11.3337C8.72804 11.3337 8.00728 11.0351 7.47586 10.5037C6.94444 9.9723 6.64589 9.25154 6.64589 8.5C6.64589 7.74846 6.94444 7.0277 7.47586 6.49628C8.00728 5.96486 8.72804 5.66631 9.47958 5.66631Z" fill="#F3EF2A"/>
</g>
<defs>
<clipPath id="clip0_27_1485">
<rect width="17" height="17" fill="white" transform="translate(0.978516)"/>
</clipPath>
</defs>
</svg>
