<svg width="18" height="17" viewBox="0 0 18 17" fill="none" xmlns="http://www.w3.org/2000/svg">
<g clip-path="url(#clip0_27_970)">
<path d="M8.89362 0.682556C6.69153 0.682556 6.41462 0.692699 5.54941 0.731244C4.68419 0.771816 4.09487 0.907735 3.57858 1.10857C3.03703 1.31227 2.5465 1.63178 2.14129 2.04479C1.72853 2.45021 1.40905 2.94068 1.20507 3.48208C1.00423 3.99736 0.867299 4.58769 0.82774 5.44986C0.789196 6.31711 0.779053 6.59301 0.779053 8.79814C0.779053 11.0012 0.789196 11.2771 0.82774 12.1424C0.868313 13.0066 1.00423 13.5959 1.20507 14.1122C1.413 14.6457 1.68991 15.0981 2.14129 15.5495C2.59164 16.0008 3.04403 16.2788 3.57756 16.4857C4.09487 16.6865 4.68317 16.8234 5.54738 16.863C6.41361 16.9016 6.6895 16.9117 8.89362 16.9117C11.0977 16.9117 11.3726 16.9016 12.2389 16.863C13.102 16.8224 13.6934 16.6865 14.2097 16.4857C14.7509 16.2819 15.2411 15.9624 15.646 15.5495C16.0973 15.0981 16.3742 14.6457 16.5822 14.1122C16.782 13.5959 16.9189 13.0066 16.9595 12.1424C16.998 11.2771 17.0082 11.0012 17.0082 8.79712C17.0082 6.59301 16.998 6.31711 16.9595 5.45088C16.9189 4.58769 16.782 3.99736 16.5822 3.48208C16.3782 2.94066 16.0587 2.45019 15.646 2.04479C15.2409 1.63163 14.7503 1.31209 14.2087 1.10857C13.6914 0.907735 13.101 0.770802 12.2378 0.731244C11.3716 0.692699 11.0967 0.682556 8.89159 0.682556H8.89464H8.89362ZM8.16635 2.14521H8.89464C11.0612 2.14521 11.3178 2.15231 12.1729 2.19187C12.9641 2.22737 13.3942 2.36024 13.6802 2.4708C14.0585 2.61788 14.3294 2.79437 14.6134 3.07838C14.8974 3.36239 15.0729 3.6322 15.2199 4.01156C15.3315 4.29658 15.4634 4.72665 15.4989 5.51783C15.5384 6.3729 15.5466 6.62952 15.5466 8.7951C15.5466 10.9607 15.5384 11.2183 15.4989 12.0734C15.4634 12.8646 15.3305 13.2936 15.2199 13.5796C15.0898 13.932 14.8822 14.2506 14.6124 14.5118C14.3284 14.7958 14.0585 14.9713 13.6792 15.1184C13.3952 15.2299 12.9651 15.3618 12.1729 15.3983C11.3178 15.4369 11.0612 15.446 8.89464 15.446C6.72805 15.446 6.47041 15.4369 5.61534 15.3983C4.82417 15.3618 4.39511 15.2299 4.10907 15.1184C3.75659 14.9885 3.43772 14.7812 3.17589 14.5118C2.90583 14.2501 2.69787 13.9313 2.5673 13.5786C2.45674 13.2936 2.32386 12.8635 2.28836 12.0724C2.24982 11.2173 2.2417 10.9607 2.2417 8.79307C2.2417 6.62648 2.24982 6.37087 2.28836 5.5158C2.32488 4.72463 2.45674 4.29455 2.56832 4.00852C2.71539 3.63017 2.89188 3.35935 3.17589 3.07534C3.4599 2.79133 3.72971 2.61585 4.10907 2.46878C4.39511 2.3572 4.82417 2.22534 5.61534 2.18882C6.3639 2.15434 6.654 2.14419 8.16635 2.14318V2.14521ZM13.2258 3.49223C13.0979 3.49223 12.9713 3.51741 12.8531 3.56635C12.735 3.61528 12.6277 3.68701 12.5372 3.77743C12.4468 3.86785 12.3751 3.9752 12.3262 4.09334C12.2772 4.21148 12.252 4.3381 12.252 4.46597C12.252 4.59385 12.2772 4.72047 12.3262 4.83861C12.3751 4.95675 12.4468 5.0641 12.5372 5.15452C12.6277 5.24494 12.735 5.31666 12.8531 5.3656C12.9713 5.41454 13.0979 5.43972 13.2258 5.43972C13.484 5.43972 13.7317 5.33713 13.9143 5.15452C14.0969 4.9719 14.1995 4.72423 14.1995 4.46597C14.1995 4.20772 14.0969 3.96004 13.9143 3.77743C13.7317 3.59482 13.484 3.49223 13.2258 3.49223ZM8.89464 4.63029C8.3419 4.62167 7.79298 4.72309 7.27981 4.92865C6.76665 5.1342 6.29951 5.43979 5.90558 5.82762C5.51166 6.21545 5.19882 6.67777 4.98528 7.18766C4.77174 7.69755 4.66177 8.24483 4.66177 8.79763C4.66177 9.35043 4.77174 9.89771 4.98528 10.4076C5.19882 10.9175 5.51166 11.3798 5.90558 11.7676C6.29951 12.1555 6.76665 12.4611 7.27981 12.6666C7.79298 12.8722 8.3419 12.9736 8.89464 12.965C9.98862 12.9479 11.032 12.5013 11.7996 11.7217C12.5672 10.942 12.9975 9.89175 12.9975 8.79763C12.9975 7.70351 12.5672 6.65327 11.7996 5.8736C11.032 5.09393 9.98862 4.64736 8.89464 4.63029ZM8.89464 6.09193C9.6121 6.09193 10.3002 6.37694 10.8075 6.88426C11.3148 7.39159 11.5998 8.07966 11.5998 8.79712C11.5998 9.51459 11.3148 10.2027 10.8075 10.71C10.3002 11.2173 9.6121 11.5023 8.89464 11.5023C8.17717 11.5023 7.4891 11.2173 6.98177 10.71C6.47445 10.2027 6.18944 9.51459 6.18944 8.79712C6.18944 8.07966 6.47445 7.39159 6.98177 6.88426C7.4891 6.37694 8.17717 6.09193 8.89464 6.09193Z" fill="#FDFBF9"/>
</g>
<defs>
<clipPath id="clip0_27_970">
<rect width="16.2291" height="16.2291" fill="white" transform="translate(0.779053 0.682556)"/>
</clipPath>
</defs>
</svg>
