<svg width="25" height="26" viewBox="0 0 25 26" fill="none" xmlns="http://www.w3.org/2000/svg">
<g clip-path="url(#clip0_27_669)">
<path d="M12.7295 0.927002C9.45832 0.927002 9.04697 0.94207 7.76169 0.999327C6.4764 1.0596 5.60096 1.26151 4.83401 1.55985C4.02953 1.86244 3.30085 2.33709 2.6989 2.95061C2.08576 3.55286 1.61117 4.28146 1.30814 5.08572C1.0098 5.85116 0.806383 6.72811 0.747618 8.00887C0.690361 9.29717 0.675293 9.70702 0.675293 12.9828C0.675293 16.2555 0.690361 16.6653 0.747618 17.9506C0.80789 19.2344 1.0098 20.1098 1.30814 20.8768C1.61703 21.6694 2.02838 22.3414 2.6989 23.0119C3.36791 23.6824 4.03994 24.0953 4.8325 24.4027C5.60096 24.701 6.47489 24.9044 7.75867 24.9632C9.04546 25.0204 9.45531 25.0355 12.7295 25.0355C16.0038 25.0355 16.4121 25.0204 17.6989 24.9632C18.9812 24.9029 19.8596 24.701 20.6266 24.4027C21.4305 24.0999 22.1587 23.6253 22.7602 23.0119C23.4307 22.3414 23.8421 21.6694 24.1509 20.8768C24.4478 20.1098 24.6512 19.2344 24.7115 17.9506C24.7687 16.6653 24.7838 16.2555 24.7838 12.9813C24.7838 9.70702 24.7687 9.29717 24.7115 8.01038C24.6512 6.72811 24.4478 5.85116 24.1509 5.08572C23.848 4.28144 23.3734 3.55283 22.7602 2.95061C22.1584 2.33686 21.4297 1.86218 20.6251 1.55985C19.8566 1.26151 18.9797 1.05809 17.6974 0.999327C16.4106 0.94207 16.0023 0.927002 12.7265 0.927002H12.7311H12.7295ZM11.6492 3.09978H12.7311C15.9495 3.09978 16.3308 3.11033 17.601 3.16909C18.7763 3.22183 19.4151 3.41922 19.84 3.58346C20.4021 3.80194 20.8044 4.06412 21.2263 4.48602C21.6482 4.90792 21.9089 5.30872 22.1273 5.87226C22.2931 6.29566 22.489 6.93454 22.5417 8.10983C22.6005 9.38005 22.6125 9.76126 22.6125 12.9782C22.6125 16.1952 22.6005 16.5779 22.5417 17.8482C22.489 19.0234 22.2916 19.6608 22.1273 20.0857C21.9341 20.6091 21.6256 21.0824 21.2248 21.4705C20.8029 21.8924 20.4021 22.153 19.8385 22.3715C19.4166 22.5373 18.7778 22.7331 17.601 22.7874C16.3308 22.8446 15.9495 22.8582 12.7311 22.8582C9.51257 22.8582 9.12984 22.8446 7.85963 22.7874C6.68434 22.7331 6.04697 22.5373 5.62206 22.3715C5.09845 22.1785 4.62476 21.8706 4.23582 21.4705C3.83464 21.0818 3.52571 20.6081 3.33175 20.0842C3.16751 19.6608 2.97012 19.0219 2.91738 17.8466C2.86013 16.5764 2.84807 16.1952 2.84807 12.9752C2.84807 9.75674 2.86013 9.37703 2.91738 8.10681C2.97163 6.93153 3.16751 6.29265 3.33326 5.86774C3.55174 5.30571 3.81392 4.9034 4.23582 4.4815C4.65772 4.0596 5.05852 3.79893 5.62206 3.58044C6.04697 3.4147 6.68434 3.21882 7.85963 3.16457C8.97163 3.11334 9.40257 3.09827 11.6492 3.09677V3.09978ZM19.165 5.10079C18.975 5.10079 18.7869 5.1382 18.6115 5.2109C18.436 5.28359 18.2765 5.39014 18.1422 5.52446C18.0078 5.65878 17.9013 5.81824 17.8286 5.99374C17.7559 6.16924 17.7185 6.35734 17.7185 6.5473C17.7185 6.73725 17.7559 6.92535 17.8286 7.10085C17.9013 7.27635 18.0078 7.43581 18.1422 7.57013C18.2765 7.70445 18.436 7.811 18.6115 7.8837C18.7869 7.95639 18.975 7.99381 19.165 7.99381C19.5486 7.99381 19.9166 7.84141 20.1878 7.57013C20.4591 7.29886 20.6115 6.93093 20.6115 6.5473C20.6115 6.16366 20.4591 5.79573 20.1878 5.52446C19.9166 5.25319 19.5486 5.10079 19.165 5.10079ZM12.7311 6.79139C11.91 6.77858 11.0945 6.92924 10.3322 7.2346C9.56992 7.53996 8.87597 7.99391 8.29079 8.57003C7.70561 9.14616 7.24089 9.83293 6.92368 10.5904C6.60646 11.3478 6.4431 12.1608 6.4431 12.982C6.4431 13.8032 6.60646 14.6162 6.92368 15.3736C7.24089 16.1311 7.70561 16.8179 8.29079 17.394C8.87597 17.9701 9.56992 18.4241 10.3322 18.7294C11.0945 19.0348 11.91 19.1854 12.7311 19.1726C14.3562 19.1473 15.9062 18.4839 17.0464 17.3257C18.1867 16.1675 18.8258 14.6073 18.8258 12.982C18.8258 11.3567 18.1867 9.79654 17.0464 8.63833C15.9062 7.48012 14.3562 6.81675 12.7311 6.79139ZM12.7311 8.96267C13.7968 8.96267 14.819 9.38605 15.5726 10.1397C16.3263 10.8933 16.7496 11.9155 16.7496 12.9813C16.7496 14.047 16.3263 15.0692 15.5726 15.8228C14.819 16.5765 13.7968 16.9998 12.7311 16.9998C11.6653 16.9998 10.6431 16.5765 9.88948 15.8228C9.13585 15.0692 8.71246 14.047 8.71246 12.9813C8.71246 11.9155 9.13585 10.8933 9.88948 10.1397C10.6431 9.38605 11.6653 8.96267 12.7311 8.96267Z" fill="#FDFBF9"/>
</g>
<defs>
<clipPath id="clip0_27_669">
<rect width="24.1085" height="24.1085" fill="white" transform="translate(0.675293 0.927002)"/>
</clipPath>
</defs>
</svg>
