<svg width="17" height="17" viewBox="0 0 17 17" fill="none" xmlns="http://www.w3.org/2000/svg">
<g clip-path="url(#clip0_27_928)">
<path d="M8.72516 0.682556C6.52307 0.682556 6.24616 0.692699 5.38095 0.731244C4.51573 0.771816 3.92641 0.907735 3.41012 1.10857C2.86857 1.31227 2.37804 1.63178 1.97283 2.04479C1.56008 2.45021 1.2406 2.94068 1.03661 3.48208C0.835775 3.99736 0.698842 4.58769 0.659283 5.44986C0.620739 6.31711 0.610596 6.59301 0.610596 8.79814C0.610596 11.0012 0.620739 11.2771 0.659283 12.1424C0.699856 13.0066 0.835775 13.5959 1.03661 14.1122C1.24455 14.6457 1.52146 15.0981 1.97283 15.5495C2.42319 16.0008 2.87557 16.2788 3.40911 16.4857C3.92641 16.6865 4.51472 16.8234 5.37892 16.863C6.24515 16.9016 6.52104 16.9117 8.72516 16.9117C10.9293 16.9117 11.2042 16.9016 12.0704 16.863C12.9336 16.8224 13.5249 16.6865 14.0412 16.4857C14.5824 16.2819 15.0726 15.9624 15.4775 15.5495C15.9289 15.0981 16.2058 14.6457 16.4137 14.1122C16.6135 13.5959 16.7505 13.0066 16.791 12.1424C16.8296 11.2771 16.8397 11.0012 16.8397 8.79712C16.8397 6.59301 16.8296 6.31711 16.791 5.45088C16.7505 4.58769 16.6135 3.99736 16.4137 3.48208C16.2098 2.94066 15.8903 2.45019 15.4775 2.04479C15.0724 1.63163 14.5818 1.31209 14.0402 1.10857C13.5229 0.907735 12.9326 0.770802 12.0694 0.731244C11.2032 0.692699 10.9283 0.682556 8.72314 0.682556H8.72618H8.72516ZM7.9979 2.14521H8.72618C10.8928 2.14521 11.1494 2.15231 12.0045 2.19187C12.7956 2.22737 13.2257 2.36024 13.5117 2.4708C13.8901 2.61788 14.1609 2.79437 14.4449 3.07838C14.7289 3.36239 14.9044 3.6322 15.0515 4.01156C15.1631 4.29658 15.2949 4.72665 15.3304 5.51783C15.37 6.3729 15.3781 6.62952 15.3781 8.7951C15.3781 10.9607 15.37 11.2183 15.3304 12.0734C15.2949 12.8646 15.162 13.2936 15.0515 13.5796C14.9214 13.932 14.7137 14.2506 14.4439 14.5118C14.1599 14.7958 13.8901 14.9713 13.5107 15.1184C13.2267 15.2299 12.7966 15.3618 12.0045 15.3983C11.1494 15.4369 10.8928 15.446 8.72618 15.446C6.55959 15.446 6.30195 15.4369 5.44688 15.3983C4.65571 15.3618 4.22665 15.2299 3.94061 15.1184C3.58813 14.9885 3.26926 14.7812 3.00744 14.5118C2.73737 14.2501 2.52941 13.9313 2.39884 13.5786C2.28828 13.2936 2.15541 12.8635 2.11991 12.0724C2.08136 11.2173 2.07325 10.9607 2.07325 8.79307C2.07325 6.62648 2.08136 6.37087 2.11991 5.5158C2.15642 4.72463 2.28828 4.29455 2.39986 4.00852C2.54693 3.63017 2.72343 3.35935 3.00744 3.07534C3.29145 2.79133 3.56126 2.61585 3.94061 2.46878C4.22665 2.3572 4.65571 2.22534 5.44688 2.18882C6.19545 2.15434 6.48554 2.14419 7.9979 2.14318V2.14521ZM13.0573 3.49223C12.9295 3.49223 12.8028 3.51741 12.6847 3.56635C12.5666 3.61528 12.4592 3.68701 12.3688 3.77743C12.2784 3.86785 12.2066 3.9752 12.1577 4.09334C12.1088 4.21148 12.0836 4.3381 12.0836 4.46597C12.0836 4.59385 12.1088 4.72047 12.1577 4.83861C12.2066 4.95675 12.2784 5.0641 12.3688 5.15452C12.4592 5.24494 12.5666 5.31666 12.6847 5.3656C12.8028 5.41454 12.9295 5.43972 13.0573 5.43972C13.3156 5.43972 13.5633 5.33713 13.7459 5.15452C13.9285 4.9719 14.0311 4.72423 14.0311 4.46597C14.0311 4.20772 13.9285 3.96004 13.7459 3.77743C13.5633 3.59482 13.3156 3.49223 13.0573 3.49223ZM8.72618 4.63029C8.17345 4.62167 7.62452 4.72309 7.11136 4.92865C6.5982 5.1342 6.13105 5.43979 5.73713 5.82762C5.3432 6.21545 5.03036 6.67777 4.81682 7.18766C4.60329 7.69755 4.49332 8.24483 4.49332 8.79763C4.49332 9.35043 4.60329 9.89771 4.81682 10.4076C5.03036 10.9175 5.3432 11.3798 5.73713 11.7676C6.13105 12.1555 6.5982 12.4611 7.11136 12.6666C7.62452 12.8722 8.17345 12.9736 8.72618 12.965C9.82017 12.9479 10.8636 12.5013 11.6312 11.7217C12.3988 10.942 12.829 9.89175 12.829 8.79763C12.829 7.70351 12.3988 6.65327 11.6312 5.8736C10.8636 5.09393 9.82017 4.64736 8.72618 4.63029ZM8.72618 6.09193C9.44364 6.09193 10.1317 6.37694 10.639 6.88426C11.1464 7.39159 11.4314 8.07966 11.4314 8.79712C11.4314 9.51459 11.1464 10.2027 10.639 10.71C10.1317 11.2173 9.44364 11.5023 8.72618 11.5023C8.00872 11.5023 7.32064 11.2173 6.81332 10.71C6.30599 10.2027 6.02098 9.51459 6.02098 8.79712C6.02098 8.07966 6.30599 7.39159 6.81332 6.88426C7.32064 6.37694 8.00872 6.09193 8.72618 6.09193Z" fill="#FDFBF9"/>
</g>
<defs>
<clipPath id="clip0_27_928">
<rect width="16.2291" height="16.2291" fill="white" transform="translate(0.610596 0.682556)"/>
</clipPath>
</defs>
</svg>
