<svg width="20" height="21" viewBox="0 0 20 21" fill="none" xmlns="http://www.w3.org/2000/svg">
<g clip-path="url(#clip0_27_328)">
<path fill-rule="evenodd" clip-rule="evenodd" d="M2.35623 1.13869C2.57495 0.9203 2.83758 0.750887 3.12672 0.641677C3.41587 0.532467 3.72492 0.485953 4.0334 0.505218C4.34188 0.524483 4.64275 0.609088 4.91606 0.753424C5.18937 0.897761 5.42888 1.09853 5.61873 1.34244L7.86248 4.22494C8.27373 4.75369 8.41873 5.44244 8.25623 6.09244L7.57248 8.82994C7.53713 8.97173 7.53904 9.12024 7.57802 9.26108C7.61701 9.40191 7.69175 9.53027 7.79498 9.63369L10.8662 12.7049C10.9698 12.8084 11.0983 12.8832 11.2394 12.9222C11.3805 12.9612 11.5293 12.963 11.6712 12.9274L14.4075 12.2437C14.7282 12.1635 15.063 12.1573 15.3866 12.2255C15.7101 12.2937 16.0139 12.4346 16.275 12.6374L19.1575 14.8799C20.1937 15.6862 20.2887 17.2174 19.3612 18.1437L18.0687 19.4362C17.1437 20.3612 15.7612 20.7674 14.4725 20.3137C11.174 19.1531 8.17907 17.2647 5.70998 14.7887C3.23409 12.32 1.34574 9.32551 0.184978 6.02744C-0.267522 4.73994 0.138728 3.35619 1.06373 2.43119L2.35623 1.13869Z" fill="#F3EF2A"/>
</g>
<defs>
<clipPath id="clip0_27_328">
<rect width="20" height="20" fill="white" transform="translate(0 0.5)"/>
</clipPath>
</defs>
</svg>
