<svg width="20" height="21" viewBox="0 0 20 21" fill="none" xmlns="http://www.w3.org/2000/svg">
<g clip-path="url(#clip0_27_331)">
<path fill-rule="evenodd" clip-rule="evenodd" d="M2.35626 1.13869C2.57498 0.9203 2.83761 0.750887 3.12675 0.641677C3.4159 0.532467 3.72495 0.485953 4.03343 0.505218C4.34191 0.524483 4.64278 0.609088 4.91609 0.753424C5.1894 0.897761 5.42891 1.09853 5.61876 1.34244L7.86251 4.22494C8.27376 4.75369 8.41876 5.44244 8.25626 6.09244L7.57251 8.82994C7.53716 8.97173 7.53907 9.12024 7.57805 9.26108C7.61704 9.40191 7.69178 9.53027 7.79501 9.63369L10.8663 12.7049C10.9698 12.8084 11.0984 12.8832 11.2394 12.9222C11.3805 12.9612 11.5293 12.963 11.6713 12.9274L14.4075 12.2437C14.7283 12.1635 15.0631 12.1573 15.3866 12.2255C15.7101 12.2937 16.0139 12.4346 16.275 12.6374L19.1575 14.8799C20.1938 15.6862 20.2888 17.2174 19.3613 18.1437L18.0688 19.4362C17.1438 20.3612 15.7613 20.7674 14.4725 20.3137C11.174 19.1531 8.1791 17.2647 5.71001 14.7887C3.23412 12.32 1.34577 9.32551 0.185009 6.02744C-0.267491 4.73994 0.138759 3.35619 1.06376 2.43119L2.35626 1.13869Z" fill="#F3EF2A"/>
</g>
<defs>
<clipPath id="clip0_27_331">
<rect width="20" height="20" fill="white" transform="translate(0 0.5)"/>
</clipPath>
</defs>
</svg>
