<svg width="20" height="21" viewBox="0 0 20 21" fill="none" xmlns="http://www.w3.org/2000/svg">
<g clip-path="url(#clip0_27_1708)">
<path fill-rule="evenodd" clip-rule="evenodd" d="M2.35586 1.13869C2.57458 0.9203 2.83721 0.750887 3.12636 0.641677C3.4155 0.532467 3.72456 0.485953 4.03304 0.505218C4.34152 0.524483 4.64238 0.609088 4.91569 0.753424C5.189 0.897761 5.42852 1.09853 5.61836 1.34244L7.86211 4.22494C8.27336 4.75369 8.41836 5.44244 8.25586 6.09244L7.57211 8.82994C7.53676 8.97173 7.53867 9.12024 7.57766 9.26108C7.61664 9.40191 7.69138 9.53027 7.79461 9.63369L10.8659 12.7049C10.9694 12.8084 11.098 12.8832 11.2391 12.9222C11.3801 12.9612 11.5289 12.963 11.6709 12.9274L14.4071 12.2437C14.7279 12.1635 15.0627 12.1573 15.3862 12.2255C15.7097 12.2937 16.0135 12.4346 16.2746 12.6374L19.1571 14.8799C20.1934 15.6862 20.2884 17.2174 19.3609 18.1437L18.0684 19.4362C17.1434 20.3612 15.7609 20.7674 14.4721 20.3137C11.1736 19.1531 8.1787 17.2647 5.70961 14.7887C3.23372 12.32 1.34537 9.32551 0.184612 6.02744C-0.267888 4.73994 0.138362 3.35619 1.06336 2.43119L2.35586 1.13869Z" fill="#F3EF2A"/>
</g>
<defs>
<clipPath id="clip0_27_1708">
<rect width="20" height="20" fill="white" transform="translate(0 0.5)"/>
</clipPath>
</defs>
</svg>
