<svg width="20" height="21" viewBox="0 0 20 21" fill="none" xmlns="http://www.w3.org/2000/svg">
<g clip-path="url(#clip0_27_697)">
<path fill-rule="evenodd" clip-rule="evenodd" d="M2.35623 1.13875C2.57495 0.920361 2.83758 0.750948 3.12672 0.641738C3.41587 0.532528 3.72492 0.486014 4.0334 0.505279C4.34188 0.524544 4.64275 0.609149 4.91606 0.753486C5.18937 0.897822 5.42888 1.0986 5.61873 1.3425L7.86248 4.225C8.27373 4.75375 8.41873 5.4425 8.25623 6.0925L7.57248 8.83C7.53713 8.97179 7.53904 9.12031 7.57802 9.26114C7.61701 9.40197 7.69175 9.53033 7.79498 9.63375L10.8662 12.705C10.9698 12.8084 11.0983 12.8833 11.2394 12.9223C11.3805 12.9613 11.5293 12.9631 11.6712 12.9275L14.4075 12.2438C14.7282 12.1635 15.063 12.1573 15.3866 12.2255C15.7101 12.2937 16.0139 12.4346 16.275 12.6375L19.1575 14.88C20.1937 15.6862 20.2887 17.2175 19.3612 18.1437L18.0687 19.4363C17.1437 20.3612 15.7612 20.7675 14.4725 20.3138C11.174 19.1532 8.17907 17.2648 5.70998 14.7887C3.23409 12.32 1.34574 9.32557 0.184978 6.0275C-0.267522 4.74 0.138728 3.35625 1.06373 2.43125L2.35623 1.13875Z" fill="#F3EF2A"/>
</g>
<defs>
<clipPath id="clip0_27_697">
<rect width="20" height="20" fill="white" transform="translate(0 0.5)"/>
</clipPath>
</defs>
</svg>
