<svg width="20" height="21" viewBox="0 0 20 21" fill="none" xmlns="http://www.w3.org/2000/svg">
<g clip-path="url(#clip0_27_1566)">
<path fill-rule="evenodd" clip-rule="evenodd" d="M2.35635 1.13875C2.57507 0.920361 2.8377 0.750948 3.12685 0.641738C3.41599 0.532528 3.72504 0.486014 4.03352 0.505279C4.342 0.524544 4.64287 0.609149 4.91618 0.753486C5.18949 0.897822 5.429 1.0986 5.61885 1.3425L7.8626 4.225C8.27385 4.75375 8.41885 5.4425 8.25635 6.0925L7.5726 8.83C7.53725 8.97179 7.53916 9.12031 7.57814 9.26114C7.61713 9.40197 7.69187 9.53033 7.7951 9.63375L10.8664 12.705C10.9699 12.8084 11.0985 12.8833 11.2395 12.9223C11.3806 12.9613 11.5294 12.9631 11.6714 12.9275L14.4076 12.2438C14.7284 12.1635 15.0632 12.1573 15.3867 12.2255C15.7102 12.2937 16.014 12.4346 16.2751 12.6375L19.1576 14.88C20.1939 15.6862 20.2889 17.2175 19.3614 18.1437L18.0689 19.4363C17.1439 20.3612 15.7614 20.7675 14.4726 20.3138C11.1741 19.1532 8.17919 17.2648 5.7101 14.7887C3.23421 12.32 1.34586 9.32557 0.1851 6.0275C-0.2674 4.74 0.13885 3.35625 1.06385 2.43125L2.35635 1.13875Z" fill="#F3EF2A"/>
</g>
<defs>
<clipPath id="clip0_27_1566">
<rect width="20" height="20" fill="white" transform="translate(0 0.5)"/>
</clipPath>
</defs>
</svg>
