<svg width="17" height="17" viewBox="0 0 17 17" fill="none" xmlns="http://www.w3.org/2000/svg">
<g clip-path="url(#clip0_27_945)">
<path d="M5.35518 15.9428C11.4797 15.9428 14.83 10.8681 14.83 6.47509C14.83 6.33309 14.83 6.18906 14.8239 6.04705C15.4761 5.57487 16.0391 4.99028 16.4863 4.32068C15.8771 4.58932 15.2314 4.76637 14.5703 4.84609C15.2667 4.42985 15.7882 3.77494 16.038 3.00307C15.3838 3.39067 14.6677 3.66276 13.9211 3.80743C13.4192 3.27291 12.7551 2.9188 12.0315 2.79996C11.308 2.68112 10.5655 2.80419 9.91895 3.15009C9.27244 3.49599 8.75803 4.04542 8.4554 4.71328C8.15277 5.38114 8.07881 6.13016 8.24498 6.84431C6.92103 6.77792 5.62582 6.43398 4.44335 5.8348C3.26088 5.23561 2.21756 4.39456 1.38107 3.3662C0.956414 4.09964 0.826818 4.9672 1.0186 5.79273C1.21038 6.61825 1.70916 7.33983 2.41365 7.81095C1.88574 7.79302 1.36943 7.65126 0.906368 7.39711V7.44276C0.907278 8.21108 1.17345 8.95554 1.65988 9.55027C2.14631 10.145 2.82318 10.5536 3.57606 10.7068C3.29029 10.7856 2.99509 10.8248 2.69867 10.8235C2.48971 10.8241 2.28116 10.8048 2.07588 10.7657C2.28867 11.4271 2.70301 12.0053 3.26086 12.4195C3.81871 12.8337 4.49213 13.063 5.1868 13.0753C4.0067 14.0022 2.54896 14.5049 1.04837 14.5024C0.78396 14.5035 0.519732 14.4883 0.257202 14.4568C1.78022 15.4278 3.54898 15.9433 5.35518 15.9428Z" fill="#FDFBF9"/>
</g>
<defs>
<clipPath id="clip0_27_945">
<rect width="16.2291" height="16.2291" fill="white" transform="translate(0.257202 0.727936)"/>
</clipPath>
</defs>
</svg>
