<svg width="17" height="17" viewBox="0 0 17 17" fill="none" xmlns="http://www.w3.org/2000/svg">
<g clip-path="url(#clip0_27_978)">
<path d="M5.56307 15.8974C11.6875 15.8974 15.0378 10.8228 15.0378 6.42974C15.0378 6.28774 15.0378 6.14371 15.0318 6.0017C15.684 5.52952 16.247 4.94493 16.6942 4.27533C16.0849 4.54397 15.4393 4.72103 14.7782 4.80075C15.4745 4.38451 15.9961 3.72959 16.2459 2.95772C15.5916 3.34532 14.8756 3.61741 14.129 3.76208C13.6271 3.22756 12.9629 2.87345 12.2394 2.75461C11.5159 2.63578 10.7733 2.75884 10.1268 3.10474C9.48033 3.45064 8.96592 4.00007 8.66329 4.66793C8.36066 5.33579 8.2867 6.08481 8.45287 6.79896C7.12892 6.73257 5.8337 6.38863 4.65123 5.78945C3.46877 5.19026 2.42545 4.34921 1.58896 3.32085C1.1643 4.05429 1.0347 4.92186 1.22648 5.74738C1.41826 6.5729 1.91704 7.29448 2.62153 7.76561C2.09362 7.74767 1.57731 7.60591 1.11425 7.35176V7.39741C1.11516 8.16574 1.38133 8.91019 1.86777 9.50492C2.3542 10.0997 3.03106 10.5082 3.78395 10.6615C3.49817 10.7402 3.20297 10.7795 2.90656 10.7781C2.69759 10.7788 2.48904 10.7594 2.28377 10.7203C2.49656 11.3817 2.91089 11.96 3.46874 12.3741C4.02659 12.7883 4.70001 13.0176 5.39469 13.0299C4.21458 13.9568 2.75685 14.4595 1.25626 14.4571C0.991846 14.4582 0.727618 14.443 0.465088 14.4114C1.98811 15.3824 3.75686 15.898 5.56307 15.8974Z" fill="black"/>
</g>
<defs>
<clipPath id="clip0_27_978">
<rect width="16.2291" height="16.2291" fill="white" transform="translate(0.465088 0.682556)"/>
</clipPath>
</defs>
</svg>
