<svg width="18" height="17" viewBox="0 0 18 17" fill="none" xmlns="http://www.w3.org/2000/svg">
<g clip-path="url(#clip0_30_469)">
<path d="M6.24833 15.9375C12.6637 15.9375 16.1731 10.6218 16.1731 6.02012C16.1731 5.87137 16.1731 5.7205 16.1668 5.57175C16.85 5.07714 17.4397 4.46478 17.9082 3.76337C17.27 4.04478 16.5936 4.23024 15.9011 4.31375C16.6306 3.87774 17.1769 3.19171 17.4386 2.38318C16.7533 2.78919 16.0032 3.07421 15.2211 3.22575C14.6954 2.66583 13.9997 2.29491 13.2418 2.17043C12.4839 2.04594 11.7061 2.17485 11.0289 2.53718C10.3517 2.89951 9.81281 3.47504 9.49581 4.17462C9.1788 4.87421 9.10133 5.6588 9.27539 6.40687C7.88855 6.33733 6.53182 5.97706 5.29319 5.34941C4.05455 4.72177 2.96168 3.84077 2.08545 2.76356C1.64063 3.53183 1.50488 4.44061 1.70576 5.30534C1.90665 6.17007 2.42912 6.92593 3.16708 7.41943C2.61409 7.40065 2.07326 7.25215 1.5882 6.98593V7.03375C1.58916 7.83857 1.86797 8.61838 2.37751 9.24137C2.88705 9.86435 3.59606 10.2923 4.3847 10.4529C4.08536 10.5353 3.77613 10.5764 3.46564 10.5751C3.24675 10.5757 3.02829 10.5554 2.81327 10.5145C3.03616 11.2073 3.47018 11.813 4.05453 12.2469C4.63887 12.6807 5.34428 12.9209 6.07195 12.9338C4.83579 13.9047 3.30882 14.4313 1.73695 14.4287C1.45998 14.4299 1.1832 14.4139 0.908203 14.3809C2.50356 15.398 4.35633 15.9381 6.24833 15.9375Z" fill="black"/>
</g>
<defs>
<clipPath id="clip0_30_469">
<rect width="17" height="17" fill="white" transform="translate(0.908203)"/>
</clipPath>
</defs>
</svg>
