<svg width="25" height="25" viewBox="0 0 25 25" fill="none" xmlns="http://www.w3.org/2000/svg">
<g clip-path="url(#clip0_27_1676)">
<path d="M8.19222 23.1104C17.2902 23.1104 22.2671 15.572 22.2671 9.04614C22.2671 8.8352 22.2671 8.62123 22.258 8.41028C23.227 7.70885 24.0632 6.84045 24.7276 5.84574C23.8225 6.24481 22.8634 6.50783 21.8813 6.62625C22.9158 6.00793 23.6906 5.03505 24.0616 3.88843C23.0898 4.46421 22.026 4.8684 20.917 5.08331C20.1714 4.28927 19.1848 3.76325 18.11 3.58671C17.0352 3.41018 15.9321 3.59299 14.9717 4.10682C14.0113 4.62066 13.2472 5.43684 12.7976 6.42896C12.3481 7.42107 12.2382 8.53374 12.485 9.59461C10.5183 9.496 8.59426 8.98507 6.83769 8.09498C5.08113 7.20488 3.53127 5.9555 2.28865 4.42786C1.65783 5.51739 1.46531 6.80616 1.7502 8.03248C2.03509 9.2588 2.77603 10.3307 3.82256 11.0306C3.03834 11.0039 2.27136 10.7933 1.58348 10.4158V10.4836C1.58483 11.625 1.98023 12.7309 2.70283 13.6143C3.42543 14.4978 4.43092 15.1047 5.54933 15.3324C5.12481 15.4494 4.68629 15.5077 4.24596 15.5057C3.93554 15.5067 3.62574 15.4779 3.3208 15.4198C3.6369 16.4023 4.2524 17.2614 5.08109 17.8766C5.90978 18.4918 6.91015 18.8325 7.9421 18.8508C6.18904 20.2277 4.02356 20.9744 1.79443 20.9708C1.40164 20.9725 1.00913 20.9498 0.619141 20.903C2.88159 22.3454 5.50909 23.1113 8.19222 23.1104Z" fill="#FDFBF9"/>
</g>
<defs>
<clipPath id="clip0_27_1676">
<rect width="24.1085" height="24.1085" fill="white" transform="translate(0.619141 0.508789)"/>
</clipPath>
</defs>
</svg>
