<svg width="18" height="17" viewBox="0 0 18 17" fill="none" xmlns="http://www.w3.org/2000/svg">
<g clip-path="url(#clip0_22_43)">
<path d="M5.45695 15.9375C11.8723 15.9375 15.3818 10.6218 15.3818 6.02013C15.3818 5.87138 15.3818 5.7205 15.3754 5.57175C16.0586 5.07715 16.6483 4.46479 17.1168 3.76338C16.4786 4.04478 15.8023 4.23025 15.1098 4.31375C15.8392 3.87774 16.3855 3.19172 16.6472 2.38319C15.9619 2.7892 15.2118 3.07421 14.4298 3.22575C13.904 2.66584 13.2083 2.29492 12.4504 2.17043C11.6925 2.04595 10.9147 2.17486 10.2375 2.53719C9.56027 2.89952 9.02143 3.47505 8.70442 4.17463C8.38742 4.87421 8.30995 5.65881 8.48401 6.40688C7.09717 6.33734 5.74044 5.97706 4.5018 5.34942C3.26317 4.72177 2.1703 3.84078 1.29407 2.76357C0.849245 3.53184 0.713493 4.44062 0.914383 5.30535C1.11527 6.17008 1.63774 6.92594 2.3757 7.41944C1.82271 7.40065 1.28187 7.25216 0.796821 6.98594V7.03375C0.797775 7.83858 1.07659 8.61839 1.58612 9.24137C2.09566 9.86436 2.80468 10.2923 3.59332 10.4529C3.29398 10.5353 2.98475 10.5765 2.67426 10.5751C2.45537 10.5757 2.23691 10.5555 2.02188 10.5145C2.24478 11.2073 2.6788 11.8131 3.26315 12.2469C3.84749 12.6807 4.5529 12.9209 5.28057 12.9338C4.04441 13.9047 2.51744 14.4313 0.945571 14.4288C0.6686 14.4299 0.391821 14.414 0.116821 14.3809C1.71218 15.398 3.56495 15.9381 5.45695 15.9375Z" fill="black"/>
</g>
<defs>
<clipPath id="clip0_22_43">
<rect width="17" height="17" fill="white" transform="translate(0.116821)"/>
</clipPath>
</defs>
</svg>
