<svg width="25" height="25" viewBox="0 0 25 25" fill="none" xmlns="http://www.w3.org/2000/svg">
<g clip-path="url(#clip0_27_665)">
<path d="M8.19308 23.1107C17.291 23.1107 22.2679 15.5723 22.2679 9.04639C22.2679 8.83544 22.2679 8.62148 22.2589 8.41053C23.2278 7.7091 24.0641 6.84069 24.7285 5.84599C23.8234 6.24506 22.8642 6.50807 21.8822 6.6265C22.9166 6.00817 23.6914 5.03529 24.0625 3.88868C23.0906 4.46445 22.0269 4.86865 20.9178 5.08355C20.1723 4.28952 19.1857 3.76349 18.1108 3.58695C17.036 3.41042 15.933 3.59323 14.9726 4.10707C14.0122 4.6209 13.248 5.43709 12.7985 6.4292C12.3489 7.42131 12.2391 8.53398 12.4859 9.59486C10.5192 9.49624 8.59511 8.98532 6.83855 8.09522C5.08198 7.20513 3.53213 5.95574 2.28951 4.4281C1.65868 5.51763 1.46616 6.80641 1.75105 8.03273C2.03595 9.25904 2.77688 10.331 3.82341 11.0308C3.03919 11.0042 2.27221 10.7936 1.58434 10.4161V10.4839C1.58569 11.6252 1.98108 12.7311 2.70368 13.6146C3.42629 14.4981 4.43177 15.105 5.55018 15.3327C5.12567 15.4496 4.68714 15.5079 4.24682 15.506C3.9364 15.5069 3.6266 15.4781 3.32165 15.4201C3.63776 16.4026 4.25326 17.2616 5.08195 17.8768C5.91064 18.4921 6.91101 18.8327 7.94295 18.851C6.1899 20.2279 4.02442 20.9747 1.79528 20.9711C1.4025 20.9727 1.00998 20.9501 0.619995 20.9032C2.88245 22.3456 5.50995 23.1115 8.19308 23.1107Z" fill="#FDFBF9"/>
</g>
<defs>
<clipPath id="clip0_27_665">
<rect width="24.1085" height="24.1085" fill="white" transform="translate(0.619995 0.508911)"/>
</clipPath>
</defs>
</svg>
