<svg width="18" height="17" viewBox="0 0 18 17" fill="none" xmlns="http://www.w3.org/2000/svg">
<g clip-path="url(#clip0_27_915)">
<path d="M5.99971 15.8974C12.1242 15.8974 15.4745 10.8228 15.4745 6.42974C15.4745 6.28774 15.4745 6.14371 15.4684 6.0017C16.1207 5.52952 16.6836 4.94493 17.1309 4.27533C16.5216 4.54397 15.8759 4.72103 15.2148 4.80075C15.9112 4.38451 16.4327 3.72959 16.6825 2.95772C16.0283 3.34532 15.3122 3.61741 14.5657 3.76208C14.0637 3.22756 13.3996 2.87345 12.6761 2.75461C11.9525 2.63578 11.21 2.75884 10.5635 3.10474C9.91697 3.45064 9.40256 4.00007 9.09993 4.66793C8.7973 5.33579 8.72334 6.08481 8.88951 6.79896C7.56556 6.73257 6.27035 6.38863 5.08788 5.78945C3.90541 5.19026 2.8621 4.34921 2.0256 3.32085C1.60095 4.05429 1.47135 4.92186 1.66313 5.74738C1.85491 6.5729 2.35369 7.29448 3.05818 7.76561C2.53027 7.74767 2.01396 7.60591 1.5509 7.35176V7.39741C1.55181 8.16574 1.81798 8.91019 2.30441 9.50492C2.79085 10.0997 3.46771 10.5082 4.22059 10.6615C3.93482 10.7402 3.63962 10.7795 3.3432 10.7781C3.13424 10.7788 2.92569 10.7594 2.72041 10.7203C2.9332 11.3817 3.34754 11.96 3.90539 12.3741C4.46324 12.7883 5.13666 13.0176 5.83133 13.0299C4.65123 13.9568 3.19349 14.4595 1.6929 14.4571C1.42849 14.4582 1.16426 14.443 0.901733 14.4114C2.42475 15.3824 4.19351 15.898 5.99971 15.8974Z" fill="black"/>
</g>
<defs>
<clipPath id="clip0_27_915">
<rect width="16.2291" height="16.2291" fill="white" transform="translate(0.901733 0.682556)"/>
</clipPath>
</defs>
</svg>
