<svg width="18" height="17" viewBox="0 0 18 17" fill="none" xmlns="http://www.w3.org/2000/svg">
<g clip-path="url(#clip0_27_936)">
<path d="M5.89473 15.8974C12.0192 15.8974 15.3695 10.8228 15.3695 6.42974C15.3695 6.28774 15.3695 6.14371 15.3634 6.0017C16.0157 5.52952 16.5786 4.94493 17.0259 4.27533C16.4166 4.54397 15.7709 4.72103 15.1098 4.80075C15.8062 4.38451 16.3278 3.72959 16.5776 2.95772C15.9233 3.34532 15.2072 3.61741 14.4607 3.76208C13.9588 3.22756 13.2946 2.87345 12.5711 2.75461C11.8475 2.63578 11.105 2.75884 10.4585 3.10474C9.81199 3.45064 9.29758 4.00007 8.99495 4.66793C8.69232 5.33579 8.61836 6.08481 8.78453 6.79896C7.46058 6.73257 6.16537 6.38863 4.9829 5.78945C3.80043 5.19026 2.75712 4.34921 1.92062 3.32085C1.49597 4.05429 1.36637 4.92186 1.55815 5.74738C1.74993 6.5729 2.24871 7.29448 2.9532 7.76561C2.42529 7.74767 1.90898 7.60591 1.44592 7.35176V7.39741C1.44683 8.16574 1.713 8.91019 2.19943 9.50492C2.68587 10.0997 3.36273 10.5082 4.11561 10.6615C3.82984 10.7402 3.53464 10.7795 3.23822 10.7781C3.02926 10.7788 2.82071 10.7594 2.61543 10.7203C2.82822 11.3817 3.24256 11.96 3.80041 12.3741C4.35826 12.7883 5.03168 13.0176 5.72635 13.0299C4.54625 13.9568 3.08851 14.4595 1.58792 14.4571C1.32351 14.4582 1.05928 14.443 0.796753 14.4114C2.31977 15.3824 4.08853 15.898 5.89473 15.8974Z" fill="black"/>
</g>
<defs>
<clipPath id="clip0_27_936">
<rect width="16.2291" height="16.2291" fill="white" transform="translate(0.796753 0.682556)"/>
</clipPath>
</defs>
</svg>
