<svg width="25" height="26" viewBox="0 0 25 26" fill="none" xmlns="http://www.w3.org/2000/svg">
<g clip-path="url(#clip0_27_297)">
<path d="M8.22418 23.5287C17.3221 23.5287 22.299 15.9902 22.299 9.46436C22.299 9.25341 22.299 9.03944 22.29 8.8285C23.2589 8.12707 24.0952 7.25866 24.7596 6.26395C23.8545 6.66303 22.8953 6.92604 21.9133 7.04447C22.9477 6.42614 23.7225 5.45326 24.0936 4.30665C23.1217 4.88242 22.058 5.28662 20.9489 5.50152C20.2034 4.70748 19.2168 4.18146 18.1419 4.00492C17.0671 3.82839 15.9641 4.0112 15.0037 4.52503C14.0433 5.03887 13.2791 5.85506 12.8296 6.84717C12.38 7.83928 12.2702 8.95195 12.517 10.0128C10.5503 9.91421 8.62621 9.40328 6.86964 8.51319C5.11308 7.6231 3.56323 6.37371 2.32061 4.84607C1.68978 5.9356 1.49726 7.22438 1.78215 8.45069C2.06704 9.67701 2.80798 10.7489 3.85451 11.4488C3.07029 11.4221 2.30331 11.2116 1.61543 10.834V10.9018C1.61678 12.0432 2.01218 13.1491 2.73478 14.0326C3.45738 14.916 4.46287 15.5229 5.58128 15.7506C5.15676 15.8676 4.71824 15.9259 4.27792 15.9239C3.96749 15.9249 3.65769 15.8961 3.35275 15.838C3.66885 16.8205 4.28435 17.6796 5.11304 18.2948C5.94173 18.91 6.94211 19.2507 7.97405 19.269C6.22099 20.6459 4.05552 21.3927 1.82638 21.389C1.4336 21.3907 1.04108 21.368 0.651093 21.3212C2.91355 22.7636 5.54105 23.5295 8.22418 23.5287Z" fill="black"/>
</g>
<defs>
<clipPath id="clip0_27_297">
<rect width="24.1085" height="24.1085" fill="white" transform="translate(0.651093 0.927002)"/>
</clipPath>
</defs>
</svg>
