<svg width="18" height="17" viewBox="0 0 18 17" fill="none" xmlns="http://www.w3.org/2000/svg">
<g clip-path="url(#clip0_27_1339)">
<path d="M6.20145 15.9375C12.6168 15.9375 16.1263 10.6218 16.1263 6.02013C16.1263 5.87138 16.1263 5.7205 16.1199 5.57175C16.8031 5.07715 17.3928 4.46479 17.8613 3.76338C17.2231 4.04478 16.5468 4.23025 15.8543 4.31375C16.5837 3.87774 17.13 3.19172 17.3917 2.38319C16.7064 2.7892 15.9563 3.07421 15.1743 3.22575C14.6485 2.66584 13.9528 2.29492 13.1949 2.17043C12.437 2.04595 11.6592 2.17486 10.982 2.53719C10.3048 2.89952 9.76593 3.47505 9.44893 4.17463C9.13193 4.87421 9.05446 5.65881 9.22852 6.40688C7.84168 6.33734 6.48495 5.97706 5.24631 5.34942C4.00768 4.72177 2.91481 3.84078 2.03858 2.76357C1.59375 3.53184 1.458 4.44062 1.65889 5.30535C1.85978 6.17008 2.38225 6.92594 3.1202 7.41944C2.56721 7.40065 2.02638 7.25216 1.54133 6.98594V7.03375C1.54228 7.83858 1.82109 8.61839 2.33063 9.24137C2.84017 9.86436 3.54919 10.2923 4.33783 10.4529C4.03848 10.5353 3.72926 10.5765 3.41877 10.5751C3.19987 10.5757 2.98142 10.5555 2.76639 10.5145C2.98929 11.2073 3.42331 11.8131 4.00765 12.2469C4.592 12.6807 5.29741 12.9209 6.02508 12.9338C4.78892 13.9047 3.26194 14.4313 1.69008 14.4288C1.41311 14.4299 1.13633 14.414 0.861328 14.3809C2.45669 15.398 4.30946 15.9381 6.20145 15.9375Z" fill="#F3EF2A"/>
</g>
<defs>
<clipPath id="clip0_27_1339">
<rect width="17" height="17" fill="white" transform="translate(0.861328)"/>
</clipPath>
</defs>
</svg>
