<svg width="18" height="17" viewBox="0 0 18 17" fill="none" xmlns="http://www.w3.org/2000/svg">
<g clip-path="url(#clip0_27_1002)">
<path d="M5.45682 15.9375C11.8722 15.9375 15.3816 10.6218 15.3816 6.02013C15.3816 5.87138 15.3816 5.7205 15.3753 5.57175C16.0585 5.07715 16.6482 4.46479 17.1167 3.76338C16.4785 4.04478 15.8021 4.23025 15.1096 4.31375C15.8391 3.87774 16.3854 3.19172 16.6471 2.38319C15.9617 2.7892 15.2117 3.07421 14.4296 3.22575C13.9039 2.66584 13.2082 2.29492 12.4503 2.17043C11.6924 2.04595 10.9146 2.17486 10.2374 2.53719C9.56015 2.89952 9.02131 3.47505 8.7043 4.17463C8.3873 4.87421 8.30983 5.65881 8.48389 6.40688C7.09705 6.33734 5.74032 5.97706 4.50168 5.34942C3.26305 4.72177 2.17018 3.84078 1.29395 2.76357C0.849123 3.53184 0.713371 4.44062 0.914261 5.30535C1.11515 6.17008 1.63762 6.92594 2.37557 7.41944C1.82259 7.40065 1.28175 7.25216 0.796699 6.98594V7.03375C0.797653 7.83858 1.07646 8.61839 1.586 9.24137C2.09554 9.86436 2.80456 10.2923 3.5932 10.4529C3.29385 10.5353 2.98463 10.5765 2.67414 10.5751C2.45524 10.5757 2.23679 10.5555 2.02176 10.5145C2.24466 11.2073 2.67868 11.8131 3.26302 12.2469C3.84737 12.6807 4.55278 12.9209 5.28045 12.9338C4.04429 13.9047 2.51731 14.4313 0.945449 14.4288C0.668477 14.4299 0.391699 14.414 0.116699 14.3809C1.71206 15.398 3.56483 15.9381 5.45682 15.9375Z" fill="black"/>
</g>
<defs>
<clipPath id="clip0_27_1002">
<rect width="17" height="17" fill="white" transform="translate(0.116699)"/>
</clipPath>
</defs>
</svg>
