<svg width="25" height="26" viewBox="0 0 25 26" fill="none" xmlns="http://www.w3.org/2000/svg">
<g clip-path="url(#clip0_27_1688)">
<path d="M8.22347 23.5287C17.3214 23.5287 22.2983 15.9902 22.2983 9.46436C22.2983 9.25341 22.2983 9.03944 22.2893 8.8285C23.2582 8.12707 24.0945 7.25866 24.7589 6.26395C23.8538 6.66303 22.8946 6.92604 21.9126 7.04447C22.947 6.42614 23.7218 5.45326 24.0929 4.30665C23.121 4.88242 22.0573 5.28662 20.9482 5.50152C20.2027 4.70748 19.216 4.18146 18.1412 4.00492C17.0664 3.82839 15.9634 4.0112 15.003 4.52503C14.0426 5.03887 13.2784 5.85506 12.8289 6.84717C12.3793 7.83928 12.2695 8.95195 12.5163 10.0128C10.5496 9.91421 8.62551 9.40328 6.86894 8.51319C5.11238 7.6231 3.56252 6.37371 2.3199 4.84607C1.68908 5.9356 1.49656 7.22438 1.78145 8.45069C2.06634 9.67701 2.80728 10.7489 3.85381 11.4488C3.06959 11.4221 2.30261 11.2116 1.61473 10.834V10.9018C1.61608 12.0432 2.01148 13.1491 2.73408 14.0326C3.45668 14.916 4.46217 15.5229 5.58058 15.7506C5.15606 15.8676 4.71754 15.9259 4.27721 15.9239C3.96679 15.9249 3.65699 15.8961 3.35205 15.838C3.66815 16.8205 4.28365 17.6796 5.11234 18.2948C5.94103 18.91 6.94141 19.2507 7.97335 19.269C6.22029 20.6459 4.05481 21.3927 1.82568 21.389C1.43289 21.3907 1.04038 21.368 0.650391 21.3212C2.91285 22.7636 5.54034 23.5295 8.22347 23.5287Z" fill="black"/>
</g>
<defs>
<clipPath id="clip0_27_1688">
<rect width="24.1085" height="24.1085" fill="white" transform="translate(0.650391 0.927002)"/>
</clipPath>
</defs>
</svg>
