<svg width="17" height="17" viewBox="0 0 17 17" fill="none" xmlns="http://www.w3.org/2000/svg">
<g clip-path="url(#clip0_27_957)">
<path d="M5.42976 15.8974C11.5542 15.8974 14.9045 10.8228 14.9045 6.42974C14.9045 6.28774 14.9045 6.14371 14.8985 6.0017C15.5507 5.52952 16.1137 4.94493 16.5609 4.27533C15.9516 4.54397 15.306 4.72103 14.6449 4.80075C15.3412 4.38451 15.8628 3.72959 16.1126 2.95772C15.4583 3.34532 14.7423 3.61741 13.9957 3.76208C13.4938 3.22756 12.8296 2.87345 12.1061 2.75461C11.3826 2.63578 10.64 2.75884 9.99354 3.10474C9.34703 3.45064 8.83262 4.00007 8.52999 4.66793C8.22736 5.33579 8.1534 6.08481 8.31957 6.79896C6.99561 6.73257 5.7004 6.38863 4.51793 5.78945C3.33547 5.19026 2.29215 4.34921 1.45565 3.32085C1.031 4.05429 0.901403 4.92186 1.09318 5.74738C1.28496 6.5729 1.78374 7.29448 2.48823 7.76561C1.96032 7.74767 1.44401 7.60591 0.980953 7.35176V7.39741C0.981863 8.16574 1.24803 8.91019 1.73447 9.50492C2.2209 10.0997 2.89776 10.5082 3.65065 10.6615C3.36487 10.7402 3.06967 10.7795 2.77326 10.7781C2.56429 10.7788 2.35574 10.7594 2.15046 10.7203C2.36326 11.3817 2.77759 11.96 3.33544 12.3741C3.89329 12.7883 4.56671 13.0176 5.26139 13.0299C4.08128 13.9568 2.62355 14.4595 1.12296 14.4571C0.858545 14.4582 0.594317 14.443 0.331787 14.4114C1.85481 15.3824 3.62356 15.898 5.42976 15.8974Z" fill="black"/>
</g>
<defs>
<clipPath id="clip0_27_957">
<rect width="16.2291" height="16.2291" fill="white" transform="translate(0.331787 0.682556)"/>
</clipPath>
</defs>
</svg>
