<svg width="25" height="25" viewBox="0 0 25 25" fill="none" xmlns="http://www.w3.org/2000/svg">
<g clip-path="url(#clip0_27_850)">
<path d="M8.19308 23.1106C17.291 23.1106 22.2679 15.5721 22.2679 9.04627C22.2679 8.83532 22.2679 8.62135 22.2589 8.4104C23.2278 7.70898 24.0641 6.84057 24.7285 5.84586C23.8234 6.24494 22.8642 6.50795 21.8822 6.62638C22.9166 6.00805 23.6914 5.03517 24.0625 3.88855C23.0906 4.46433 22.0269 4.86853 20.9178 5.08343C20.1723 4.28939 19.1857 3.76337 18.1108 3.58683C17.036 3.4103 15.933 3.59311 14.9726 4.10694C14.0122 4.62078 13.248 5.43697 12.7985 6.42908C12.3489 7.42119 12.2391 8.53386 12.4859 9.59474C10.5192 9.49612 8.59511 8.98519 6.83855 8.0951C5.08198 7.20501 3.53213 5.95562 2.28951 4.42798C1.65868 5.51751 1.46616 6.80629 1.75105 8.0326C2.03595 9.25892 2.77688 10.3308 3.82341 11.0307C3.03919 11.0041 2.27221 10.7935 1.58434 10.4159V10.4837C1.58569 11.6251 1.98108 12.731 2.70368 13.6145C3.42629 14.498 4.43177 15.1048 5.55018 15.3326C5.12567 15.4495 4.68714 15.5078 4.24682 15.5058C3.9364 15.5068 3.6266 15.478 3.32165 15.42C3.63776 16.4025 4.25326 17.2615 5.08195 17.8767C5.91064 18.492 6.91101 18.8326 7.94295 18.8509C6.1899 20.2278 4.02442 20.9746 1.79528 20.9709C1.4025 20.9726 1.00998 20.9499 0.619995 20.9031C2.88245 22.3455 5.50995 23.1114 8.19308 23.1106Z" fill="#FDFBF9"/>
</g>
<defs>
<clipPath id="clip0_27_850">
<rect width="24.1085" height="24.1085" fill="white" transform="translate(0.619995 0.50885)"/>
</clipPath>
</defs>
</svg>
