<svg width="18" height="17" viewBox="0 0 18 17" fill="none" xmlns="http://www.w3.org/2000/svg">
<g clip-path="url(#clip0_22_67)">
<path d="M6.20142 15.9375C12.6168 15.9375 16.1262 10.6218 16.1262 6.02013C16.1262 5.87138 16.1262 5.7205 16.1199 5.57175C16.8031 5.07715 17.3928 4.46479 17.8613 3.76338C17.2231 4.04478 16.5467 4.23025 15.8542 4.31375C16.5837 3.87774 17.13 3.19172 17.3917 2.38319C16.7063 2.7892 15.9563 3.07421 15.1742 3.22575C14.6485 2.66584 13.9528 2.29492 13.1949 2.17043C12.437 2.04595 11.6592 2.17486 10.982 2.53719C10.3048 2.89952 9.7659 3.47505 9.4489 4.17463C9.1319 4.87421 9.05443 5.65881 9.22849 6.40688C7.84165 6.33734 6.48491 5.97706 5.24628 5.34942C4.00765 4.72177 2.91477 3.84078 2.03855 2.76357C1.59372 3.53184 1.45797 4.44062 1.65886 5.30535C1.85975 6.17008 2.38222 6.92594 3.12017 7.41944C2.56718 7.40065 2.02635 7.25216 1.5413 6.98594V7.03375C1.54225 7.83858 1.82106 8.61839 2.3306 9.24137C2.84014 9.86436 3.54915 10.2923 4.3378 10.4529C4.03845 10.5353 3.72923 10.5765 3.41874 10.5751C3.19984 10.5757 2.98139 10.5555 2.76636 10.5145C2.98926 11.2073 3.42328 11.8131 4.00762 12.2469C4.59197 12.6807 5.29738 12.9209 6.02505 12.9338C4.78889 13.9047 3.26191 14.4313 1.69005 14.4288C1.41308 14.4299 1.1363 14.414 0.861298 14.3809C2.45666 15.398 4.30943 15.9381 6.20142 15.9375Z" fill="#F3EF2A"/>
</g>
<defs>
<clipPath id="clip0_22_67">
<rect width="17" height="17" fill="white" transform="translate(0.861298)"/>
</clipPath>
</defs>
</svg>
