<svg width="17" height="17" viewBox="0 0 17 17" fill="none" xmlns="http://www.w3.org/2000/svg">
<g clip-path="url(#clip0_27_924)">
<path d="M5.32015 15.9428C11.4446 15.9428 14.7949 10.8681 14.7949 6.47509C14.7949 6.33309 14.7949 6.18906 14.7888 6.04705C15.4411 5.57487 16.0041 4.99028 16.4513 4.32068C15.842 4.58932 15.1963 4.76637 14.5353 4.84609C15.2316 4.42985 15.7532 3.77494 16.003 3.00307C15.3487 3.39067 14.6326 3.66276 13.8861 3.80743C13.3842 3.27291 12.72 2.9188 11.9965 2.79996C11.273 2.68112 10.5304 2.80419 9.88392 3.15009C9.23741 3.49599 8.723 4.04542 8.42037 4.71328C8.11774 5.38114 8.04378 6.13016 8.20995 6.84431C6.886 6.77792 5.59078 6.43398 4.40831 5.8348C3.22585 5.23561 2.18253 4.39456 1.34604 3.3662C0.92138 4.09964 0.791784 4.9672 0.983564 5.79273C1.17534 6.61825 1.67412 7.33983 2.37861 7.81095C1.8507 7.79302 1.33439 7.65126 0.871333 7.39711V7.44276C0.872244 8.21108 1.13841 8.95554 1.62485 9.55027C2.11128 10.145 2.78814 10.5536 3.54103 10.7068C3.25525 10.7856 2.96005 10.8248 2.66364 10.8235C2.45467 10.8241 2.24612 10.8048 2.04085 10.7657C2.25364 11.4271 2.66797 12.0053 3.22582 12.4195C3.78367 12.8337 4.45709 13.063 5.15177 13.0753C3.97166 14.0022 2.51393 14.5049 1.01334 14.5024C0.748926 14.5035 0.484698 14.4883 0.222168 14.4568C1.74519 15.4278 3.51394 15.9433 5.32015 15.9428Z" fill="#FDFBF9"/>
</g>
<defs>
<clipPath id="clip0_27_924">
<rect width="16.2291" height="16.2291" fill="white" transform="translate(0.222168 0.727936)"/>
</clipPath>
</defs>
</svg>
