<svg width="25" height="25" viewBox="0 0 25 25" fill="none" xmlns="http://www.w3.org/2000/svg">
<g clip-path="url(#clip0_49_801)">
<path d="M8.1932 23.1106C17.2911 23.1106 22.268 15.5722 22.268 9.04632C22.268 8.83537 22.268 8.62141 22.259 8.41046C23.228 7.70903 24.0642 6.84062 24.7286 5.84592C23.8235 6.24499 22.8644 6.508 21.8823 6.62643C22.9168 6.0081 23.6915 5.03522 24.0626 3.88861C23.0907 4.46439 22.027 4.86858 20.918 5.08349C20.1724 4.28945 19.1858 3.76342 18.111 3.58689C17.0361 3.41035 15.9331 3.59316 14.9727 4.107C14.0123 4.62083 13.2482 5.43702 12.7986 6.42913C12.349 7.42124 12.2392 8.53391 12.486 9.59479C10.5193 9.49617 8.59523 8.98525 6.83867 8.09515C5.0821 7.20506 3.53225 5.95568 2.28963 4.42804C1.6588 5.51756 1.46629 6.80634 1.75118 8.03266C2.03607 9.25897 2.77701 10.3309 3.82353 11.0308C3.03931 11.0041 2.27233 10.7935 1.58446 10.416V10.4838C1.58581 11.6251 1.9812 12.731 2.70381 13.6145C3.42641 14.498 4.43189 15.1049 5.55031 15.3326C5.12579 15.4496 4.68727 15.5079 4.24694 15.5059C3.93652 15.5068 3.62672 15.4781 3.32178 15.42C3.63788 16.4025 4.25338 17.2615 5.08207 17.8768C5.91076 18.492 6.91113 18.8326 7.94307 18.8509C6.19002 20.2278 4.02454 20.9746 1.79541 20.971C1.40262 20.9726 1.01011 20.95 0.620117 20.9032C2.88257 22.3456 5.51007 23.1114 8.1932 23.1106Z" fill="#FDFBF9"/>
</g>
<defs>
<clipPath id="clip0_49_801">
<rect width="24.1085" height="24.1085" fill="white" transform="translate(0.620117 0.508881)"/>
</clipPath>
</defs>
</svg>
