<svg width="25" height="26" viewBox="0 0 25 26" fill="none" xmlns="http://www.w3.org/2000/svg">
<g clip-path="url(#clip0_27_677)">
<path d="M8.22421 23.5288C17.3222 23.5288 22.299 15.9903 22.299 9.46448C22.299 9.25353 22.2991 9.03957 22.29 8.82862C23.259 8.12719 24.0952 7.25878 24.7596 6.26408C23.8545 6.66315 22.8954 6.92616 21.9133 7.04459C22.9478 6.42626 23.7225 5.45338 24.0936 4.30677C23.1217 4.88254 22.058 5.28674 20.949 5.50164C20.2034 4.70761 19.2168 4.18158 18.142 4.00505C17.0672 3.82851 15.9641 4.01132 15.0037 4.52516C14.0433 5.03899 13.2792 5.85518 12.8296 6.84729C12.38 7.8394 12.2702 8.95207 12.517 10.0129C10.5503 9.91433 8.62624 9.40341 6.86967 8.51331C5.11311 7.62322 3.56326 6.37384 2.32064 4.8462C1.68981 5.93572 1.49729 7.2245 1.78218 8.45082C2.06707 9.67713 2.80801 10.7491 3.85454 11.4489C3.07032 11.4223 2.30334 11.2117 1.61546 10.8341V10.9019C1.61682 12.0433 2.01221 13.1492 2.73481 14.0327C3.45741 14.9162 4.4629 15.5231 5.58131 15.7508C5.1568 15.8677 4.71827 15.926 4.27795 15.9241C3.96752 15.925 3.65773 15.8962 3.35278 15.8382C3.66888 16.8207 4.28438 17.6797 5.11307 18.2949C5.94176 18.9102 6.94214 19.2508 7.97408 19.2691C6.22102 20.646 4.05555 21.3928 1.82641 21.3891C1.43363 21.3908 1.04111 21.3682 0.651123 21.3213C2.91358 22.7637 5.54108 23.5296 8.22421 23.5288Z" fill="black"/>
</g>
<defs>
<clipPath id="clip0_27_677">
<rect width="24.1085" height="24.1085" fill="white" transform="translate(0.651123 0.927002)"/>
</clipPath>
</defs>
</svg>
