<svg width="25" height="26" viewBox="0 0 25 26" fill="none" xmlns="http://www.w3.org/2000/svg">
<g clip-path="url(#clip0_27_1175)">
<path d="M8.22445 23.5288C17.3224 23.5288 22.2993 15.9903 22.2993 9.46448C22.2993 9.25353 22.2993 9.03957 22.2903 8.82862C23.2592 8.12719 24.0955 7.25878 24.7599 6.26408C23.8548 6.66315 22.8956 6.92616 21.9136 7.04459C22.948 6.42626 23.7228 5.45338 24.0939 4.30677C23.122 4.88254 22.0582 5.28674 20.9492 5.50164C20.2036 4.70761 19.217 4.18158 18.1422 4.00505C17.0674 3.82851 15.9644 4.01132 15.004 4.52516C14.0436 5.03899 13.2794 5.85518 12.8299 6.84729C12.3803 7.8394 12.2704 8.95207 12.5173 10.0129C10.5505 9.91433 8.62648 9.40341 6.86992 8.51331C5.11335 7.62322 3.5635 6.37384 2.32088 4.8462C1.69005 5.93572 1.49754 7.2245 1.78243 8.45082C2.06732 9.67713 2.80826 10.7491 3.85478 11.4489C3.07056 11.4223 2.30358 11.2117 1.61571 10.8341V10.9019C1.61706 12.0433 2.01245 13.1492 2.73506 14.0327C3.45766 14.9162 4.46314 15.5231 5.58156 15.7508C5.15704 15.8677 4.71852 15.926 4.27819 15.9241C3.96777 15.925 3.65797 15.8962 3.35303 15.8382C3.66913 16.8207 4.28463 17.6797 5.11332 18.2949C5.94201 18.9102 6.94238 19.2508 7.97432 19.2691C6.22127 20.646 4.05579 21.3928 1.82666 21.3891C1.43387 21.3908 1.04136 21.3682 0.651367 21.3213C2.91382 22.7637 5.54132 23.5296 8.22445 23.5288Z" fill="black"/>
</g>
<defs>
<clipPath id="clip0_27_1175">
<rect width="24.1085" height="24.1085" fill="white" transform="translate(0.651367 0.927002)"/>
</clipPath>
</defs>
</svg>
