<svg width="25" height="25" viewBox="0 0 25 25" fill="none" xmlns="http://www.w3.org/2000/svg">
<g clip-path="url(#clip0_27_1392)">
<path d="M8.1932 23.1107C17.2911 23.1107 22.268 15.5723 22.268 9.04639C22.268 8.83544 22.268 8.62148 22.259 8.41053C23.228 7.7091 24.0642 6.84069 24.7286 5.84599C23.8235 6.24506 22.8644 6.50807 21.8823 6.6265C22.9168 6.00817 23.6915 5.03529 24.0626 3.88868C23.0907 4.46445 22.027 4.86865 20.918 5.08355C20.1724 4.28952 19.1858 3.76349 18.111 3.58695C17.0361 3.41042 15.9331 3.59323 14.9727 4.10707C14.0123 4.6209 13.2482 5.43709 12.7986 6.4292C12.349 7.42131 12.2392 8.53398 12.486 9.59486C10.5193 9.49624 8.59523 8.98532 6.83867 8.09522C5.0821 7.20513 3.53225 5.95574 2.28963 4.4281C1.6588 5.51763 1.46629 6.80641 1.75118 8.03273C2.03607 9.25904 2.77701 10.331 3.82353 11.0308C3.03931 11.0042 2.27233 10.7936 1.58446 10.4161V10.4839C1.58581 11.6252 1.9812 12.7311 2.70381 13.6146C3.42641 14.4981 4.43189 15.105 5.55031 15.3327C5.12579 15.4496 4.68727 15.5079 4.24694 15.506C3.93652 15.5069 3.62672 15.4781 3.32178 15.4201C3.63788 16.4026 4.25338 17.2616 5.08207 17.8768C5.91076 18.4921 6.91113 18.8327 7.94307 18.851C6.19002 20.2279 4.02454 20.9747 1.79541 20.9711C1.40262 20.9727 1.01011 20.9501 0.620117 20.9032C2.88257 22.3456 5.51007 23.1115 8.1932 23.1107Z" fill="#FDFBF9"/>
</g>
<defs>
<clipPath id="clip0_27_1392">
<rect width="24.1085" height="24.1085" fill="white" transform="translate(0.620117 0.508911)"/>
</clipPath>
</defs>
</svg>
