<svg width="18" height="17" viewBox="0 0 18 17" fill="none" xmlns="http://www.w3.org/2000/svg">
<g clip-path="url(#clip0_27_903)">
<path d="M5.92513 15.9428C12.0496 15.9428 15.3999 10.8681 15.3999 6.47509C15.3999 6.33309 15.3999 6.18906 15.3938 6.04705C16.0461 5.57487 16.609 4.99028 17.0563 4.32068C16.447 4.58932 15.8013 4.76637 15.1402 4.84609C15.8366 4.42985 16.3582 3.77494 16.608 3.00307C15.9537 3.39067 15.2376 3.66276 14.4911 3.80743C13.9892 3.27291 13.325 2.9188 12.6015 2.79996C11.8779 2.68112 11.1354 2.80419 10.4889 3.15009C9.84239 3.49599 9.32798 4.04542 9.02535 4.71328C8.72272 5.38114 8.64876 6.13016 8.81493 6.84431C7.49098 6.77792 6.19576 6.43398 5.0133 5.8348C3.83083 5.23561 2.78751 4.39456 1.95102 3.3662C1.52636 4.09964 1.39676 4.9672 1.58854 5.79273C1.78032 6.61825 2.2791 7.33983 2.9836 7.81095C2.45568 7.79302 1.93937 7.65126 1.47631 7.39711V7.44276C1.47722 8.21108 1.74339 8.95554 2.22983 9.55027C2.71626 10.145 3.39313 10.5536 4.14601 10.7068C3.86024 10.7856 3.56503 10.8248 3.26862 10.8235C3.05965 10.8241 2.8511 10.8048 2.64583 10.7657C2.85862 11.4271 3.27295 12.0053 3.8308 12.4195C4.38865 12.8337 5.06208 13.063 5.75675 13.0753C4.57664 14.0022 3.11891 14.5049 1.61832 14.5024C1.35391 14.5035 1.08968 14.4883 0.827148 14.4568C2.35017 15.4278 4.11892 15.9433 5.92513 15.9428Z" fill="#FDFBF9"/>
</g>
<defs>
<clipPath id="clip0_27_903">
<rect width="16.2291" height="16.2291" fill="white" transform="translate(0.827148 0.727936)"/>
</clipPath>
</defs>
</svg>
