<svg width="25" height="25" viewBox="0 0 25 25" fill="none" xmlns="http://www.w3.org/2000/svg">
<g clip-path="url(#clip0_27_1534)">
<path d="M8.1932 23.1106C17.2911 23.1106 22.268 15.5721 22.268 9.04627C22.268 8.83532 22.268 8.62135 22.259 8.4104C23.228 7.70898 24.0642 6.84057 24.7286 5.84586C23.8235 6.24494 22.8644 6.50795 21.8823 6.62638C22.9168 6.00805 23.6915 5.03517 24.0626 3.88855C23.0907 4.46433 22.027 4.86853 20.918 5.08343C20.1724 4.28939 19.1858 3.76337 18.111 3.58683C17.0361 3.4103 15.9331 3.59311 14.9727 4.10694C14.0123 4.62078 13.2482 5.43697 12.7986 6.42908C12.349 7.42119 12.2392 8.53386 12.486 9.59474C10.5193 9.49612 8.59523 8.98519 6.83867 8.0951C5.0821 7.20501 3.53225 5.95562 2.28963 4.42798C1.6588 5.51751 1.46629 6.80629 1.75118 8.0326C2.03607 9.25892 2.77701 10.3308 3.82353 11.0307C3.03931 11.0041 2.27233 10.7935 1.58446 10.4159V10.4837C1.58581 11.6251 1.9812 12.731 2.70381 13.6145C3.42641 14.498 4.43189 15.1048 5.55031 15.3326C5.12579 15.4495 4.68727 15.5078 4.24694 15.5058C3.93652 15.5068 3.62672 15.478 3.32178 15.42C3.63788 16.4025 4.25338 17.2615 5.08207 17.8767C5.91076 18.492 6.91113 18.8326 7.94307 18.8509C6.19002 20.2278 4.02454 20.9746 1.79541 20.9709C1.40262 20.9726 1.01011 20.9499 0.620117 20.9031C2.88257 22.3455 5.51007 23.1114 8.1932 23.1106Z" fill="#FDFBF9"/>
</g>
<defs>
<clipPath id="clip0_27_1534">
<rect width="24.1085" height="24.1085" fill="white" transform="translate(0.620117 0.50885)"/>
</clipPath>
</defs>
</svg>
