<svg width="18" height="17" viewBox="0 0 18 17" fill="none" xmlns="http://www.w3.org/2000/svg">
<g clip-path="url(#clip0_30_443)">
<path d="M6.24882 15.9375C12.6642 15.9375 16.1736 10.6218 16.1736 6.02012C16.1736 5.87137 16.1736 5.7205 16.1673 5.57175C16.8505 5.07714 17.4402 4.46478 17.9087 3.76337C17.2705 4.04478 16.5941 4.23024 15.9016 4.31375C16.6311 3.87774 17.1774 3.19171 17.4391 2.38318C16.7537 2.78919 16.0036 3.07421 15.2216 3.22575C14.6959 2.66583 14.0002 2.29491 13.2423 2.17043C12.4844 2.04594 11.7066 2.17485 11.0294 2.53718C10.3521 2.89951 9.8133 3.47504 9.49629 4.17462C9.17929 4.87421 9.10182 5.6588 9.27588 6.40687C7.88904 6.33733 6.53231 5.97706 5.29367 5.34941C4.05504 4.72177 2.96217 3.84077 2.08594 2.76356C1.64112 3.53183 1.50536 4.44061 1.70625 5.30534C1.90714 6.17007 2.42961 6.92593 3.16757 7.41943C2.61458 7.40065 2.07374 7.25215 1.58869 6.98593V7.03375C1.58964 7.83857 1.86846 8.61838 2.37799 9.24137C2.88753 9.86435 3.59655 10.2923 4.38519 10.4529C4.08585 10.5353 3.77662 10.5764 3.46613 10.5751C3.24724 10.5757 3.02878 10.5554 2.81375 10.5145C3.03665 11.2073 3.47067 11.813 4.05502 12.2469C4.63936 12.6807 5.34477 12.9209 6.07244 12.9338C4.83628 13.9047 3.30931 14.4313 1.73744 14.4287C1.46047 14.4299 1.18369 14.4139 0.908691 14.3809C2.50405 15.398 4.35682 15.9381 6.24882 15.9375Z" fill="black"/>
</g>
<defs>
<clipPath id="clip0_30_443">
<rect width="17" height="17" fill="white" transform="translate(0.908691)"/>
</clipPath>
</defs>
</svg>
