<svg width="25" height="25" viewBox="0 0 25 25" fill="none" xmlns="http://www.w3.org/2000/svg">
<g clip-path="url(#clip0_27_822)">
<path d="M8.19308 23.1106C17.291 23.1106 22.2679 15.5722 22.2679 9.04633C22.2679 8.83538 22.2679 8.62142 22.2589 8.41047C23.2278 7.70904 24.0641 6.84063 24.7285 5.84592C23.8234 6.245 22.8642 6.50801 21.8822 6.62644C22.9166 6.00811 23.6914 5.03523 24.0625 3.88862C23.0906 4.46439 22.0269 4.86859 20.9178 5.08349C20.1723 4.28946 19.1857 3.76343 18.1108 3.58689C17.036 3.41036 15.933 3.59317 14.9726 4.107C14.0122 4.62084 13.248 5.43703 12.7985 6.42914C12.3489 7.42125 12.2391 8.53392 12.4859 9.5948C10.5192 9.49618 8.59511 8.98525 6.83855 8.09516C5.08198 7.20507 3.53213 5.95568 2.28951 4.42804C1.65868 5.51757 1.46616 6.80635 1.75105 8.03266C2.03595 9.25898 2.77688 10.3309 3.82341 11.0308C3.03919 11.0041 2.27221 10.7935 1.58434 10.416V10.4838C1.58569 11.6252 1.98108 12.731 2.70368 13.6145C3.42629 14.498 4.43177 15.1049 5.55018 15.3326C5.12567 15.4496 4.68714 15.5079 4.24682 15.5059C3.9364 15.5068 3.6266 15.4781 3.32165 15.42C3.63776 16.4025 4.25326 17.2615 5.08195 17.8768C5.91064 18.492 6.91101 18.8326 7.94295 18.851C6.1899 20.2278 4.02442 20.9746 1.79528 20.971C1.4025 20.9727 1.00998 20.95 0.619995 20.9032C2.88245 22.3456 5.50995 23.1115 8.19308 23.1106Z" fill="#FDFBF9"/>
</g>
<defs>
<clipPath id="clip0_27_822">
<rect width="24.1085" height="24.1085" fill="white" transform="translate(0.619995 0.508881)"/>
</clipPath>
</defs>
</svg>
