<svg width="18" height="17" viewBox="0 0 18 17" fill="none" xmlns="http://www.w3.org/2000/svg">
<g clip-path="url(#clip0_27_1493)">
<path d="M5.45731 15.9375C11.8727 15.9375 15.3821 10.6218 15.3821 6.02013C15.3821 5.87138 15.3821 5.7205 15.3757 5.57175C16.059 5.07715 16.6487 4.46479 17.1172 3.76338C16.479 4.04478 15.8026 4.23025 15.1101 4.31375C15.8396 3.87774 16.3859 3.19172 16.6476 2.38319C15.9622 2.7892 15.2121 3.07421 14.4301 3.22575C13.9044 2.66584 13.2087 2.29492 12.4508 2.17043C11.6929 2.04595 10.9151 2.17486 10.2379 2.53719C9.56064 2.89952 9.02179 3.47505 8.70479 4.17463C8.38779 4.87421 8.31032 5.65881 8.48438 6.40688C7.09754 6.33734 5.7408 5.97706 4.50217 5.34942C3.26354 4.72177 2.17066 3.84078 1.29444 2.76357C0.849611 3.53184 0.71386 4.44062 0.914749 5.30535C1.11564 6.17008 1.63811 6.92594 2.37606 7.41944C1.82307 7.40065 1.28224 7.25216 0.797188 6.98594V7.03375C0.798141 7.83858 1.07695 8.61839 1.58649 9.24137C2.09603 9.86436 2.80504 10.2923 3.59369 10.4529C3.29434 10.5353 2.98512 10.5765 2.67463 10.5751C2.45573 10.5757 2.23728 10.5555 2.02225 10.5145C2.24515 11.2073 2.67917 11.8131 3.26351 12.2469C3.84786 12.6807 4.55327 12.9209 5.28094 12.9338C4.04478 13.9047 2.5178 14.4313 0.945937 14.4288C0.668966 14.4299 0.392187 14.414 0.117188 14.3809C1.71255 15.398 3.56532 15.9381 5.45731 15.9375Z" fill="black"/>
</g>
<defs>
<clipPath id="clip0_27_1493">
<rect width="17" height="17" fill="white" transform="translate(0.117188)"/>
</clipPath>
</defs>
</svg>
