<svg width="25" height="25" viewBox="0 0 25 25" fill="none" xmlns="http://www.w3.org/2000/svg">
<g clip-path="url(#clip0_27_285)">
<path d="M8.19302 23.1104C17.291 23.1104 22.2679 15.572 22.2679 9.04614C22.2679 8.8352 22.2679 8.62123 22.2588 8.41028C23.2278 7.70885 24.064 6.84045 24.7284 5.84574C23.8233 6.24481 22.8642 6.50783 21.8821 6.62625C22.9166 6.00793 23.6914 5.03505 24.0624 3.88843C23.0905 4.46421 22.0268 4.8684 20.9178 5.08331C20.1722 4.28927 19.1856 3.76325 18.1108 3.58671C17.036 3.41018 15.9329 3.59299 14.9725 4.10682C14.0121 4.62066 13.248 5.43684 12.7984 6.42896C12.3489 7.42107 12.239 8.53374 12.4858 9.59461C10.5191 9.496 8.59505 8.98507 6.83849 8.09498C5.08192 7.20488 3.53207 5.9555 2.28945 4.42786C1.65862 5.51739 1.4661 6.80616 1.75099 8.03248C2.03588 9.2588 2.77682 10.3307 3.82335 11.0306C3.03913 11.0039 2.27215 10.7933 1.58427 10.4158V10.4836C1.58563 11.625 1.98102 12.7309 2.70362 13.6143C3.42622 14.4978 4.43171 15.1047 5.55012 15.3324C5.12561 15.4494 4.68708 15.5077 4.24676 15.5057C3.93634 15.5067 3.62654 15.4779 3.32159 15.4198C3.6377 16.4023 4.2532 17.2614 5.08189 17.8766C5.91057 18.4918 6.91095 18.8325 7.94289 18.8508C6.18983 20.2277 4.02436 20.9744 1.79522 20.9708C1.40244 20.9725 1.00992 20.9498 0.619934 20.903C2.88239 22.3454 5.50989 23.1113 8.19302 23.1104Z" fill="#FDFBF9"/>
</g>
<defs>
<clipPath id="clip0_27_285">
<rect width="24.1085" height="24.1085" fill="white" transform="translate(0.619934 0.508789)"/>
</clipPath>
</defs>
</svg>
