<svg width="17" height="17" viewBox="0 0 17 17" fill="none" xmlns="http://www.w3.org/2000/svg">
<g clip-path="url(#clip0_27_966)">
<path d="M5.4886 15.9428C11.6131 15.9428 14.9634 10.8681 14.9634 6.47509C14.9634 6.33309 14.9634 6.18906 14.9573 6.04705C15.6096 5.57487 16.1725 4.99028 16.6198 4.32068C16.0105 4.58932 15.3648 4.76637 14.7037 4.84609C15.4001 4.42985 15.9216 3.77494 16.1714 3.00307C15.5172 3.39067 14.8011 3.66276 14.0545 3.80743C13.5526 3.27291 12.8885 2.9188 12.165 2.79996C11.4414 2.68112 10.6989 2.80419 10.0524 3.15009C9.40587 3.49599 8.89145 4.04542 8.58882 4.71328C8.28619 5.38114 8.21224 6.13016 8.3784 6.84431C7.05445 6.77792 5.75924 6.43398 4.57677 5.8348C3.3943 5.23561 2.35099 4.39456 1.51449 3.3662C1.08984 4.09964 0.960241 4.9672 1.15202 5.79273C1.3438 6.61825 1.84258 7.33983 2.54707 7.81095C2.01916 7.79302 1.50285 7.65126 1.03979 7.39711V7.44276C1.0407 8.21108 1.30687 8.95554 1.7933 9.55027C2.27974 10.145 2.9566 10.5536 3.70948 10.7068C3.42371 10.7856 3.12851 10.8248 2.8321 10.8235C2.62313 10.8241 2.41458 10.8048 2.2093 10.7657C2.42209 11.4271 2.83643 12.0053 3.39428 12.4195C3.95213 12.8337 4.62555 13.063 5.32023 13.0753C4.14012 14.0022 2.68238 14.5049 1.1818 14.5024C0.917383 14.5035 0.653155 14.4883 0.390625 14.4568C1.91364 15.4278 3.6824 15.9433 5.4886 15.9428Z" fill="#FDFBF9"/>
</g>
<defs>
<clipPath id="clip0_27_966">
<rect width="16.2291" height="16.2291" fill="white" transform="translate(0.390625 0.727936)"/>
</clipPath>
</defs>
</svg>
