<svg width="18" height="17" viewBox="0 0 18 17" fill="none" xmlns="http://www.w3.org/2000/svg">
<g clip-path="url(#clip0_30_22)">
<path d="M6.24833 15.9375C12.6637 15.9375 16.1731 10.6218 16.1731 6.02013C16.1731 5.87138 16.1731 5.7205 16.1668 5.57175C16.85 5.07715 17.4397 4.46479 17.9082 3.76338C17.27 4.04478 16.5936 4.23025 15.9011 4.31375C16.6306 3.87774 17.1769 3.19172 17.4386 2.38319C16.7533 2.7892 16.0032 3.07421 15.2211 3.22575C14.6954 2.66584 13.9997 2.29492 13.2418 2.17043C12.4839 2.04595 11.7061 2.17486 11.0289 2.53719C10.3517 2.89952 9.81281 3.47505 9.49581 4.17463C9.1788 4.87421 9.10133 5.65881 9.27539 6.40688C7.88855 6.33734 6.53182 5.97706 5.29319 5.34942C4.05455 4.72177 2.96168 3.84078 2.08545 2.76357C1.64063 3.53184 1.50488 4.44062 1.70576 5.30535C1.90665 6.17008 2.42912 6.92594 3.16708 7.41944C2.61409 7.40065 2.07326 7.25216 1.5882 6.98594V7.03375C1.58916 7.83858 1.86797 8.61839 2.37751 9.24137C2.88705 9.86436 3.59606 10.2923 4.3847 10.4529C4.08536 10.5353 3.77613 10.5765 3.46564 10.5751C3.24675 10.5757 3.02829 10.5555 2.81327 10.5145C3.03616 11.2073 3.47018 11.8131 4.05453 12.2469C4.63887 12.6807 5.34428 12.9209 6.07195 12.9338C4.83579 13.9047 3.30882 14.4313 1.73695 14.4288C1.45998 14.4299 1.1832 14.414 0.908203 14.3809C2.50356 15.398 4.35633 15.9381 6.24833 15.9375Z" fill="black"/>
</g>
<defs>
<clipPath id="clip0_30_22">
<rect width="17" height="17" fill="white" transform="translate(0.908203)"/>
</clipPath>
</defs>
</svg>
