<svg width="18" height="17" viewBox="0 0 18 17" fill="none" xmlns="http://www.w3.org/2000/svg">
<g clip-path="url(#clip0_27_595)">
<path d="M5.45707 15.9375C11.8724 15.9375 15.3819 10.6218 15.3819 6.02013C15.3819 5.87138 15.3819 5.7205 15.3755 5.57175C16.0588 5.07715 16.6484 4.46479 17.1169 3.76338C16.4787 4.04478 15.8024 4.23025 15.1099 4.31375C15.8393 3.87774 16.3856 3.19172 16.6473 2.38319C15.962 2.7892 15.2119 3.07421 14.4299 3.22575C13.9041 2.66584 13.2084 2.29492 12.4505 2.17043C11.6926 2.04595 10.9148 2.17486 10.2376 2.53719C9.5604 2.89952 9.02155 3.47505 8.70455 4.17463C8.38754 4.87421 8.31007 5.65881 8.48413 6.40688C7.09729 6.33734 5.74056 5.97706 4.50193 5.34942C3.26329 4.72177 2.17042 3.84078 1.29419 2.76357C0.849367 3.53184 0.713615 4.44062 0.914505 5.30535C1.11539 6.17008 1.63786 6.92594 2.37582 7.41944C1.82283 7.40065 1.282 7.25216 0.796943 6.98594V7.03375C0.797897 7.83858 1.07671 8.61839 1.58625 9.24137C2.09579 9.86436 2.8048 10.2923 3.59344 10.4529C3.2941 10.5353 2.98487 10.5765 2.67438 10.5751C2.45549 10.5757 2.23704 10.5555 2.02201 10.5145C2.2449 11.2073 2.67892 11.8131 3.26327 12.2469C3.84762 12.6807 4.55302 12.9209 5.28069 12.9338C4.04453 13.9047 2.51756 14.4313 0.945693 14.4288C0.668722 14.4299 0.391943 14.414 0.116943 14.3809C1.7123 15.398 3.56507 15.9381 5.45707 15.9375Z" fill="black"/>
</g>
<defs>
<clipPath id="clip0_27_595">
<rect width="17" height="17" fill="white" transform="translate(0.116943)"/>
</clipPath>
</defs>
</svg>
