<svg width="50" height="18" viewBox="0 0 50 18" fill="none" xmlns="http://www.w3.org/2000/svg">
<path d="M9.02343 14.445L14.3157 0.989985H17.1413V17.5845H15.0184V5.22084L10.0849 17.5845H8.32078L3.37233 4.87698H3.01352V17.5845H0.890625V0.989985H3.71617L9.02343 14.445ZM33.7358 10.9168C33.6877 12.7117 33.0698 14.4447 31.9717 15.8652C31.3474 16.5523 30.582 17.0964 29.7279 17.4603C28.8738 17.8241 27.9512 17.999 27.0232 17.9732C26.1478 17.9973 25.2785 17.8197 24.4827 17.4541C23.6869 17.0886 22.9858 16.545 22.4336 15.8652C21.7691 15.2225 21.2392 14.454 20.8747 13.6044C20.5102 12.7548 20.3185 11.8412 20.3107 10.9168V7.74738C20.316 6.82256 20.5066 5.90819 20.8712 5.05827C21.2358 4.20835 21.7671 3.44011 22.4336 2.79893C22.9827 2.11471 23.6829 1.56697 24.4792 1.19866C25.2755 0.830342 26.1462 0.651462 27.0232 0.676036C27.9528 0.649044 28.877 0.824989 29.7316 1.19162C30.5862 1.55825 31.3507 2.10675 31.9717 2.79893C33.0745 4.21693 33.6929 5.95154 33.7358 7.74738V10.9168ZM31.6129 7.74738C31.6821 7.08722 31.5904 6.42013 31.3456 5.80311C31.1009 5.18609 30.7104 4.63751 30.2076 4.20424C29.8054 3.76121 29.315 3.4072 28.7679 3.16494C28.2208 2.92268 27.629 2.79753 27.0307 2.79753C26.4324 2.79753 25.8406 2.92268 25.2935 3.16494C24.7464 3.4072 24.256 3.76121 23.8538 4.20424C23.0817 5.21731 22.7044 6.47665 22.7924 7.74738V10.9168C22.7026 12.1831 23.0802 13.4384 23.8538 14.445C24.2535 14.8922 24.743 15.2499 25.2905 15.4949C25.8379 15.7398 26.4309 15.8665 27.0307 15.8665C27.6305 15.8665 28.2234 15.7398 28.7709 15.4949C29.3183 15.2499 29.8079 14.8922 30.2076 14.445C30.7112 14.0157 31.1025 13.4699 31.3474 12.855C31.5923 12.2402 31.6834 11.5748 31.6129 10.9168V7.74738ZM49.6276 17.6293H47.1459L39.3869 4.92183V17.6293H36.9201V0.989985H39.3869L47.1459 13.6975V0.989985H49.6276V17.6293Z" fill="#FDFBF9"/>
</svg>
