<svg width="45" height="18" viewBox="0 0 45 18" fill="none" xmlns="http://www.w3.org/2000/svg">
<path d="M13.3807 2.73921H8.07351V17.5696H5.60677V2.73921H0.314453V0.990062H13.3807V2.73921ZM28.2112 17.5696H26.0882V10.0946H17.9704V17.5696H15.8475V0.990062H17.9704V8.46506H26.0882V0.990062H28.2112V17.5696ZM34.1911 10.5132V17.5696H32.0682V0.990062H37.7343C38.4981 0.922506 39.2677 1.01236 39.9955 1.25408C40.7232 1.49579 41.3935 1.88423 41.9651 2.39537C42.4615 2.75311 42.8534 3.23682 43.1004 3.79659C43.3475 4.35635 43.4407 4.9719 43.3704 5.57971C43.3543 6.44901 43.1122 7.29914 42.6678 8.04646C42.1562 8.62854 41.5618 9.13225 40.9037 9.54146C41.627 9.80903 42.2453 10.3016 42.6678 10.9468C43.1084 11.6957 43.3503 12.5448 43.3704 13.4135V16.2391C43.5257 16.6392 43.7654 17.0012 44.0731 17.3005V17.6593H41.6063C41.6063 17.3005 41.2625 16.9417 41.2625 16.5979C41.2625 15.8952 40.9037 15.5364 40.9037 14.8338V13.3388C40.9506 12.9573 40.9119 12.5701 40.7903 12.2055C40.6688 11.8408 40.4674 11.5079 40.201 11.2308C39.8422 10.5282 39.1396 10.5282 38.0782 10.5282L34.1911 10.5132ZM34.1911 8.74912H37.4054C38.4009 8.83123 39.3953 8.57868 40.231 8.03151C40.5761 7.72183 40.8498 7.34083 41.033 6.9149C41.2163 6.48897 41.3048 6.02828 41.2924 5.56476C41.2647 5.15829 41.1566 4.76135 40.9744 4.39695C40.7922 4.03254 40.5395 3.70791 40.231 3.44186C39.5061 2.94767 38.6407 2.70119 37.7642 2.73921H34.221L34.1911 8.74912Z" fill="#FDFBF9"/>
</svg>
