<svg width="41" height="18" viewBox="0 0 41 18" fill="none" xmlns="http://www.w3.org/2000/svg">
<path d="M10.2951 13.3238C10.2864 12.6737 10.036 12.0502 9.59254 11.5747C8.77867 10.865 7.81156 10.3533 6.76697 10.0797C5.25025 9.77397 3.8079 9.1747 2.52113 8.31558C2.08651 7.90523 1.73839 7.41214 1.49705 6.86529C1.25572 6.31845 1.12614 5.72887 1.11591 5.13122C1.17009 4.51003 1.36179 3.9087 1.67727 3.37084C1.99274 2.83298 2.42403 2.3721 2.93977 2.02163C4.03971 1.13821 5.40135 0.644032 6.81186 0.616328C7.59993 0.607533 8.38151 0.759419 9.10892 1.06272C9.83634 1.36603 10.4943 1.81439 11.0426 2.38043C11.5274 2.75381 11.916 3.23758 12.176 3.79146C12.4361 4.34534 12.56 4.9533 12.5376 5.56477V5.90863H10.4148C10.4223 5.21241 10.2211 4.52989 9.83699 3.94916C9.45289 3.36842 8.90361 2.91612 8.25996 2.65061C7.61631 2.38511 6.90779 2.31858 6.22596 2.45962C5.54413 2.60066 4.92026 2.9428 4.43477 3.44188C3.99278 3.92425 3.74286 4.55182 3.73216 5.20598C3.74006 5.86069 3.99037 6.48923 4.43477 6.97008C5.34081 7.74826 6.44164 8.26507 7.61913 8.46508C8.996 8.84184 10.3033 9.43747 11.4911 10.2292C12.1515 11.157 12.521 12.2602 12.5526 13.3986C12.6132 14.0148 12.5063 14.6359 12.2432 15.1964C11.98 15.7569 11.5704 16.2359 11.0576 16.5829C9.82309 17.4708 8.34713 17.961 6.82673 17.9882C5.3248 17.8403 3.8746 17.3603 2.58098 16.5829C2.06141 16.1466 1.63677 15.6084 1.33336 15.0016C1.02994 14.3948 0.854188 13.7322 0.816895 13.0547V12.6959H2.93977C2.87248 13.2041 2.97343 13.7204 3.2272 14.1658C3.48096 14.6113 3.87359 14.9614 4.34507 15.1627C4.65281 15.5102 5.03345 15.7855 5.45984 15.969C5.88624 16.1525 6.34792 16.2396 6.81186 16.2241C7.68863 16.2643 8.55456 16.0177 9.27855 15.5215C9.59102 15.2588 9.84642 14.935 10.029 14.5699C10.2115 14.2048 10.3174 13.8061 10.34 13.3986L10.2951 13.3238ZM24.0641 13.3238H18.0841L16.6788 17.5696H14.1972L20.1772 0.975125H22.3748L28.0259 17.5696H25.9029L24.0641 13.3238ZM18.7719 11.5747H23.7203L21.2535 4.09968L18.7719 11.5747ZM40.6586 2.73923H35.0225V17.5696H32.8398V2.73923H27.5325V0.990078H40.5988L40.6586 2.73923Z" fill="#090303"/>
</svg>
