<svg width="47" height="18" viewBox="0 0 47 18" fill="none" xmlns="http://www.w3.org/2000/svg">
<path d="M4.81525 11.9184L5.17403 14.0413L5.53286 11.9184L8.70226 0.989981H10.8251L13.6507 11.9334L13.9946 14.0563H14.3534V11.9334L16.8351 0.989981H19.3018L15.4148 17.5845H13.2919L10.1225 5.92349L9.76369 4.51818L9.40491 5.92349L6.23552 17.5845H4.1126L0.225586 0.989981H2.70729L4.81525 11.9184ZM30.604 9.81048H23.8915V15.7905H31.9645V17.5546H21.7237V0.989981H31.6057V2.75408H23.8915V8.04638H30.604V9.81048ZM34.476 17.5695V0.989981H39.7833C40.7626 0.961456 41.7374 1.13377 42.6476 1.4963C43.5578 1.85883 44.3841 2.40391 45.0756 3.09794C46.2855 4.45483 46.9184 6.23013 46.8397 8.04638V10.5281C46.916 12.3395 46.2832 14.1093 45.0756 15.4616C44.3848 16.1576 43.559 16.7049 42.6489 17.07C41.7387 17.4351 40.7636 17.6102 39.7833 17.5845L34.476 17.5695ZM36.599 2.73913V15.8054H39.7833C40.4487 15.8627 41.1181 15.7565 41.733 15.4959C42.3479 15.2353 42.8898 14.8284 43.3115 14.3104C43.8088 13.7991 44.1975 13.1925 44.4544 12.5271C44.7113 11.8617 44.8311 11.1512 44.8065 10.4384V7.95669C44.8314 7.24156 44.7118 6.52874 44.455 5.86088C44.1981 5.19301 43.8092 4.5838 43.3115 4.06968C42.8813 3.56702 42.3355 3.17646 41.7208 2.93165C41.1062 2.68684 40.4413 2.59512 39.7833 2.66438L36.599 2.73913Z" fill="#FDFBF9"/>
</svg>
