<svg width="20" height="26" viewBox="0 0 20 26" fill="none" xmlns="http://www.w3.org/2000/svg">
<path d="M0.0517122 0H0.270335C2.27583 0 4.28081 2.50243e-07 6.2863 0.00665622C6.42495 0.0121947 6.55717 0.0666045 6.65955 0.160255C10.89 4.37741 15.1159 8.599 19.3371 12.825C19.3883 12.8762 19.4395 12.9341 19.5204 13.0186C19.2306 13.2981 18.9449 13.5654 18.6684 13.8413C14.6796 17.8288 10.6927 21.8179 6.70768 25.8088C6.64827 25.8728 6.57553 25.9231 6.49458 25.956C6.41364 25.9889 6.32647 26.0037 6.2392 25.9992C4.26801 25.9931 2.29682 25.9956 0.325631 25.9956H0.0558075L0.000512497 25.9153C0.0971116 25.8503 0.189303 25.7789 0.27648 25.7018C4.38577 21.5942 8.49455 17.4856 12.6028 13.3759C12.9254 13.0529 12.9259 12.9428 12.6028 12.6207C8.49455 8.51145 4.38543 4.40267 0.275455 0.294399C0.188362 0.217178 0.09635 0.14569 0 0.080384L0.0517122 0Z" fill="#090303"/>
</svg>
