<svg width="31" height="18" viewBox="0 0 31 18" fill="none" xmlns="http://www.w3.org/2000/svg">
<path d="M9.87357 10.1544H2.80225V17.6294H0.694336V0.990062H10.935V2.75416H2.81721V8.46506H9.88853L9.87357 10.1544ZM15.8536 10.5132V17.5696H13.3719V0.990062H19.023C19.7868 0.922506 20.5564 1.01236 21.2841 1.25408C22.0118 1.49579 22.6822 1.88423 23.2538 2.39537C23.7502 2.75311 24.1421 3.23682 24.3891 3.79659C24.6362 4.35635 24.7294 4.9719 24.6591 5.57971C24.643 6.44901 24.4009 7.29914 23.9565 8.04646C23.4484 8.63209 22.8535 9.13629 22.1924 9.54146C22.9184 9.80427 23.5381 10.2979 23.9565 10.9468C24.3971 11.6957 24.639 12.5448 24.6591 13.4135V16.2391C24.8129 16.6437 25.0586 17.007 25.3767 17.3005V17.6593H23.2538C22.895 17.3005 22.5512 16.9417 22.5512 16.5979V13.4135C22.5266 13.0085 22.4197 12.6128 22.2372 12.2504C22.0548 11.888 21.8004 11.5665 21.4897 11.3056C21.1309 10.6029 20.4283 10.6029 19.3818 10.6029L15.8536 10.5132ZM15.8536 8.74912H19.023C19.9011 8.78276 20.7666 8.53098 21.4897 8.03151C21.8349 7.72183 22.1085 7.34083 22.2918 6.9149C22.4751 6.48897 22.5636 6.02828 22.5512 5.56476C22.5235 5.15829 22.4154 4.76135 22.2332 4.39695C22.051 4.03254 21.7983 3.70791 21.4897 3.44186C20.7926 2.89105 19.9057 2.63845 19.023 2.73921H15.8536V8.74912ZM30.6691 17.5696H28.5611V0.990062H30.6691V17.5696Z" fill="#FDFBF9"/>
</svg>
