<svg width="44" height="18" viewBox="0 0 44 18" fill="none" xmlns="http://www.w3.org/2000/svg">
<path d="M9.2278 13.3238C9.2278 12.6212 9.2278 11.9185 8.52515 11.5747C8.1813 10.8571 7.11985 10.5132 5.6996 10.0797C4.30675 9.82984 2.98528 9.2788 1.82755 8.46509C1.32844 8.10911 0.933591 7.62617 0.683877 7.06629C0.434163 6.50641 0.338676 5.88994 0.407306 5.28075C0.377356 4.67573 0.490329 4.07216 0.737074 3.51893C0.98382 2.9657 1.3574 2.47836 1.82755 2.09639C2.93746 1.2507 4.26464 0.737456 5.65475 0.616343C6.44483 0.60899 7.22824 0.761482 7.95788 1.06464C8.68751 1.3678 9.34831 1.81537 9.90055 2.38044C10.4146 2.74493 10.8401 3.22038 11.1454 3.7716C11.4508 4.32282 11.6283 4.93568 11.6646 5.56479L11.3059 5.90864H9.2278C9.20964 5.03965 8.96762 4.19003 8.52515 3.44189C7.74563 2.72362 6.71405 2.34215 5.65475 2.38044C5.23759 2.32689 4.81394 2.39934 4.4383 2.5885C4.06265 2.77765 3.75217 3.07486 3.5468 3.44189C3.22818 3.61335 2.96195 3.86789 2.77637 4.1785C2.59079 4.4891 2.4928 4.84417 2.4928 5.20599C2.4928 5.56781 2.59079 5.92288 2.77637 6.23349C2.96195 6.54409 3.22818 6.79864 3.5468 6.97009C4.30625 7.74744 5.28833 8.26982 6.35741 8.46509C7.78918 8.68941 9.13288 9.29925 10.2444 10.2292C10.7011 10.6238 11.0702 11.1096 11.3277 11.6555C11.5852 12.2014 11.7254 12.7952 11.7394 13.3986C11.7455 14.0366 11.5862 14.6652 11.277 15.2233C10.9679 15.7813 10.5194 16.2498 9.9753 16.5829C8.83747 17.4074 7.4903 17.8945 6.0883 17.9882C4.56791 17.9611 3.09197 17.4708 1.85745 16.5829C1.25291 16.2004 0.764693 15.6595 0.445795 15.0191C0.126897 14.3786 -0.0105044 13.6631 0.048503 12.9501V12.5913H2.1714C2.12133 13.059 2.19271 13.5318 2.37865 13.9639C2.56458 14.396 2.85878 14.7728 3.23285 15.058C3.99686 15.7723 5.01311 16.154 6.0584 16.1195C6.9277 16.1034 7.77783 15.8612 8.52515 15.4168C8.79275 15.1375 8.99468 14.802 9.11623 14.4347C9.23778 14.0675 9.2759 13.6778 9.2278 13.2939V13.3238ZM26.8987 0.990093V11.9335C26.9787 12.7319 26.8547 13.5375 26.5384 14.2749C26.222 15.0123 25.7235 15.6573 25.0898 16.1494C24.5017 16.7334 23.8006 17.1911 23.0294 17.4944C22.2581 17.7978 21.4331 17.9404 20.6048 17.9135C19.0188 17.9135 17.4977 17.2835 16.3762 16.162C15.2548 15.0405 14.6248 13.5195 14.6248 11.9335V0.990093H16.7327V11.9335C16.6903 12.5058 16.7623 13.0808 16.9445 13.625C17.1268 14.1692 17.4156 14.6716 17.7942 15.1029C18.5912 15.7621 19.5858 16.1357 20.6197 16.1643C21.1946 16.2114 21.7731 16.1416 22.3204 15.9592C22.8676 15.7767 23.3723 15.4855 23.8041 15.1029C24.1826 14.6716 24.4714 14.1692 24.6537 13.625C24.8359 13.0808 24.9079 12.5058 24.8655 11.9335V0.990093H26.8987ZM43.1344 17.5846H41.0115L32.8937 4.87709V17.5846H30.4269V0.990093H32.8937L40.6677 13.6976H41.0115V0.990093H43.1344V17.5846Z" fill="#090303"/>
</svg>
