<svg width="43" height="18" viewBox="0 0 43 18" fill="none" xmlns="http://www.w3.org/2000/svg">
<path d="M13.8096 2.73914H8.50229V17.5695H6.0804V2.73914H0.788086V0.98999H13.8544L13.8096 2.73914ZM28.2812 0.98999V11.9334C28.3704 12.7304 28.2553 13.5369 27.9466 14.2771C27.638 15.0173 27.146 15.6667 26.5171 16.1642C25.8979 16.7187 25.17 17.138 24.3798 17.3954C23.5895 17.6528 22.7543 17.7427 21.9274 17.6592C21.1573 17.7148 20.3839 17.6108 19.6559 17.3535C18.9279 17.0962 18.2608 16.6914 17.6965 16.1642C17.1319 15.6148 16.6845 14.9566 16.3813 14.2295C16.0781 13.5023 15.9254 12.7212 15.9324 11.9334V0.98999H18.0404V11.9334C18.128 12.9349 18.5656 13.8735 19.2765 14.5843C19.9873 15.2952 20.9259 15.7328 21.9274 15.8204C22.502 15.8632 23.0794 15.7914 23.6261 15.6091C24.1727 15.4269 24.6777 15.1379 25.1118 14.7589C25.819 13.9906 26.1997 12.9773 26.1732 11.9334V0.98999H28.2812ZM40.9887 9.82545H34.291V15.8054H42.0651V17.5695H32.1682V0.98999H42.0651V2.75409H34.291V8.04639H40.9887V9.82545Z" fill="#FDFBF9"/>
</svg>
