<svg width="17" height="17" viewBox="0 0 17 17" fill="none" xmlns="http://www.w3.org/2000/svg">
<g clip-path="url(#clip0_27_974)">
<path d="M8.50809 2.75558H8.59837C9.43214 2.75863 13.6568 2.78906 14.7959 3.09538C15.1402 3.18887 15.454 3.3711 15.7059 3.62385C15.9577 3.87661 16.1389 4.19104 16.2311 4.53572C16.3336 4.92116 16.4056 5.43136 16.4543 5.9578L16.4644 6.06329L16.4867 6.32701L16.4949 6.4325C16.5608 7.35959 16.5689 8.22785 16.5699 8.41752V8.4936C16.5689 8.69038 16.5598 9.61747 16.4867 10.5831L16.4786 10.6896L16.4695 10.7951C16.4188 11.3753 16.3437 11.9514 16.2311 12.3754C16.1391 12.7202 15.9581 13.0348 15.7062 13.2876C15.4543 13.5404 15.1404 13.7225 14.7959 13.8157C13.6193 14.1322 9.14712 14.1545 8.52737 14.1555H8.38333C8.06991 14.1555 6.77361 14.1495 5.41442 14.1028L5.24198 14.0967L5.15374 14.0927L4.98029 14.0856L4.80684 14.0785C3.68094 14.0287 2.6088 13.9486 2.11483 13.8147C1.77046 13.7216 1.4566 13.5396 1.2047 13.287C0.952807 13.0344 0.771714 12.72 0.679566 12.3754C0.566976 11.9524 0.491916 11.3753 0.4412 10.7951L0.433086 10.6886L0.424971 10.5831C0.374912 9.8958 0.347173 9.20705 0.341797 8.51794L0.341797 8.39318C0.343826 8.1751 0.35194 7.42146 0.406713 6.58972L0.413814 6.48524L0.416857 6.4325L0.424971 6.32701L0.447286 6.06329L0.457429 5.9578C0.506117 5.43136 0.578134 4.92015 0.68058 4.53572C0.772573 4.1909 0.953597 3.87632 1.2055 3.62352C1.45741 3.37072 1.77135 3.18859 2.11584 3.09538C2.60982 2.96352 3.68196 2.88237 4.80785 2.83166L4.98029 2.82456L5.15475 2.81847L5.24198 2.81543L5.41543 2.80833C6.38077 2.77727 7.3465 2.76002 8.31233 2.7566H8.50809V2.75558ZM6.83345 6.01156V10.8986L11.05 8.45607L6.83345 6.01156Z" fill="#FDFBF9"/>
</g>
<defs>
<clipPath id="clip0_27_974">
<rect width="16.2291" height="16.2291" fill="white" transform="translate(0.341797 0.727936)"/>
</clipPath>
</defs>
</svg>
