<svg width="26" height="25" viewBox="0 0 26 25" fill="none" xmlns="http://www.w3.org/2000/svg">
<g clip-path="url(#clip0_27_1400)">
<path d="M13.1201 3.521H13.2542C14.4928 3.52552 20.7685 3.57072 22.4606 4.02577C22.9722 4.16465 23.4383 4.43534 23.8125 4.81081C24.1866 5.18628 24.4557 5.65337 24.5927 6.1654C24.7449 6.73797 24.8519 7.49589 24.9242 8.2779L24.9393 8.43461L24.9724 8.82637L24.9845 8.98308C25.0824 10.3603 25.0945 11.6501 25.096 11.9318V12.0449C25.0945 12.3372 25.0809 13.7144 24.9724 15.1488L24.9604 15.307L24.9468 15.4637C24.8715 16.3256 24.76 17.1815 24.5927 17.8113C24.4561 18.3235 24.1872 18.7909 23.813 19.1664C23.4387 19.5419 22.9724 19.8125 22.4606 19.9509C20.7128 20.4211 14.0694 20.4542 13.1487 20.4557H12.9348C12.4692 20.4557 10.5435 20.4467 8.52443 20.3774L8.26827 20.3683L8.13718 20.3623L7.87952 20.3517L7.62186 20.3412C5.94934 20.2674 4.35667 20.1483 3.62287 19.9494C3.1113 19.8111 2.64506 19.5408 2.27087 19.1655C1.89667 18.7903 1.62766 18.3233 1.49077 17.8113C1.32352 17.183 1.21202 16.3256 1.13668 15.4637L1.12462 15.3055L1.11257 15.1488C1.03821 14.1278 0.996999 13.1047 0.989014 12.081L0.989014 11.8957C0.992027 11.5717 1.00408 10.4522 1.08545 9.21663L1.096 9.06143L1.10052 8.98308L1.11257 8.82637L1.14572 8.43461L1.16079 8.2779C1.23311 7.49589 1.34009 6.73647 1.49228 6.1654C1.62893 5.65316 1.89785 5.18585 2.27206 4.81032C2.64627 4.43479 3.11263 4.16423 3.62437 4.02577C4.35818 3.82989 5.95084 3.70934 7.62337 3.634L7.87952 3.62346L8.13869 3.61442L8.26827 3.6099L8.52593 3.59935C9.95995 3.5532 11.3946 3.52759 12.8293 3.5225H13.1201V3.521ZM10.6324 8.35776V15.6174L16.8961 11.9891L10.6324 8.35776Z" fill="#FDFBF9"/>
</g>
<defs>
<clipPath id="clip0_27_1400">
<rect width="24.1085" height="24.1085" fill="white" transform="translate(0.989014 0.508911)"/>
</clipPath>
</defs>
</svg>
