<svg width="17" height="17" viewBox="0 0 17 17" fill="none" xmlns="http://www.w3.org/2000/svg">
<g clip-path="url(#clip0_27_953)">
<path d="M8.37443 2.75558H8.4647C9.29847 2.75863 13.5231 2.78906 14.6622 3.09538C15.0066 3.18887 15.3203 3.3711 15.5722 3.62385C15.8241 3.87661 16.0052 4.19104 16.0975 4.53572C16.1999 4.92116 16.2719 5.43136 16.3206 5.9578L16.3308 6.06329L16.3531 6.32701L16.3612 6.4325C16.4271 7.35959 16.4352 8.22785 16.4363 8.41752V8.4936C16.4352 8.69038 16.4261 9.61747 16.3531 10.5831L16.345 10.6896L16.3358 10.7951C16.2851 11.3753 16.2101 11.9514 16.0975 12.3754C16.0055 12.7202 15.8245 13.0348 15.5725 13.2876C15.3206 13.5404 15.0067 13.7225 14.6622 13.8157C13.4856 14.1322 9.01345 14.1545 8.3937 14.1555H8.24967C7.93624 14.1555 6.63994 14.1495 5.28075 14.1028L5.10831 14.0967L5.02007 14.0927L4.84662 14.0856L4.67317 14.0785C3.54727 14.0287 2.47514 13.9486 1.98116 13.8147C1.63679 13.7216 1.32293 13.5396 1.07104 13.287C0.81914 13.0344 0.638047 12.72 0.545899 12.3754C0.433309 11.9524 0.358249 11.3753 0.307533 10.7951L0.299419 10.6886L0.291304 10.5831C0.241245 9.8958 0.213506 9.20705 0.20813 8.51794L0.20813 8.39318C0.210159 8.1751 0.218273 7.42146 0.273046 6.58972L0.280147 6.48524L0.28319 6.4325L0.291304 6.32701L0.313619 6.06329L0.323762 5.9578C0.37245 5.43136 0.444467 4.92015 0.546913 4.53572C0.638906 4.1909 0.81993 3.87632 1.07184 3.62352C1.32375 3.37072 1.63768 3.18859 1.98218 3.09538C2.47615 2.96352 3.54829 2.88237 4.67418 2.83166L4.84662 2.82456L5.02108 2.81847L5.10831 2.81543L5.28176 2.80833C6.2471 2.77727 7.21283 2.76002 8.17866 2.7566H8.37443V2.75558ZM6.69978 6.01156V10.8986L10.9163 8.45607L6.69978 6.01156Z" fill="#FDFBF9"/>
</g>
<defs>
<clipPath id="clip0_27_953">
<rect width="16.2291" height="16.2291" fill="white" transform="translate(0.20813 0.727936)"/>
</clipPath>
</defs>
</svg>
