<svg width="26" height="25" viewBox="0 0 26 25" fill="none" xmlns="http://www.w3.org/2000/svg">
<g clip-path="url(#clip0_27_858)">
<path d="M13.1204 3.52094H13.2545C14.493 3.52546 20.7688 3.57066 22.4609 4.02571C22.9724 4.16458 23.4386 4.43528 23.8127 4.81075C24.1869 5.18622 24.4559 5.65331 24.593 6.16534C24.7452 6.73791 24.8521 7.49582 24.9245 8.27784L24.9395 8.43455L24.9727 8.82631L24.9847 8.98302C25.0827 10.3602 25.0947 11.65 25.0962 11.9318V12.0448C25.0947 12.3371 25.0812 13.7143 24.9727 15.1488L24.9606 15.307L24.9471 15.4637C24.8717 16.3256 24.7602 17.1814 24.593 17.8112C24.4563 18.3235 24.1874 18.7908 23.8132 19.1663C23.439 19.5419 22.9726 19.8124 22.4609 19.9509C20.713 20.421 14.0696 20.4541 13.149 20.4557H12.935C12.4694 20.4557 10.5438 20.4466 8.52467 20.3773L8.26852 20.3683L8.13743 20.3622L7.87977 20.3517L7.62211 20.3411C5.94958 20.2673 4.35691 20.1483 3.62311 19.9494C3.11154 19.811 2.64531 19.5407 2.27111 19.1655C1.89692 18.7902 1.6279 18.3232 1.49102 17.8112C1.32376 17.1829 1.21226 16.3256 1.13692 15.4637L1.12487 15.3055L1.11281 15.1488C1.03845 14.1278 0.997244 13.1046 0.989258 12.081L0.989258 11.8956C0.992271 11.5717 1.00433 10.4521 1.08569 9.21657L1.09624 9.06137L1.10076 8.98302L1.11281 8.82631L1.14596 8.43455L1.16103 8.27784C1.23336 7.49582 1.34034 6.73641 1.49252 6.16534C1.62918 5.6531 1.89809 5.18579 2.2723 4.81026C2.64651 4.43473 3.11287 4.16417 3.62462 4.02571C4.35842 3.82983 5.95109 3.70928 7.62361 3.63394L7.87977 3.6234L8.13893 3.61436L8.26852 3.60984L8.52618 3.59929C9.96019 3.55314 11.3948 3.52752 12.8295 3.52244H13.1204V3.52094ZM10.6327 8.3577V15.6174L16.8963 11.989L10.6327 8.3577Z" fill="#FDFBF9"/>
</g>
<defs>
<clipPath id="clip0_27_858">
<rect width="24.1085" height="24.1085" fill="white" transform="translate(0.989258 0.50885)"/>
</clipPath>
</defs>
</svg>
