<svg width="18" height="17" viewBox="0 0 18 17" fill="none" xmlns="http://www.w3.org/2000/svg">
<g clip-path="url(#clip0_22_73)">
<path d="M8.83165 2.12402H8.92622C9.79959 2.12721 14.2249 2.15909 15.4181 2.47996C15.7788 2.57789 16.1075 2.76877 16.3713 3.03353C16.6351 3.29829 16.8249 3.62766 16.9215 3.98871C17.0288 4.39246 17.1043 4.9269 17.1553 5.47834L17.1659 5.58884L17.1893 5.86509L17.1978 5.97559C17.2668 6.94671 17.2753 7.85621 17.2764 8.0549V8.13459C17.2753 8.34071 17.2658 9.31184 17.1893 10.3233L17.1808 10.4349L17.1712 10.5454C17.1181 11.1531 17.0395 11.7566 16.9215 12.2008C16.8252 12.562 16.6355 12.8915 16.3717 13.1563C16.1078 13.4211 15.7789 13.6119 15.4181 13.7095C14.1856 14.041 9.50103 14.0644 8.85184 14.0655H8.70096C8.37265 14.0655 7.01478 14.0591 5.59103 14.0102L5.4104 14.0038L5.31797 13.9996L5.13628 13.9921L4.95459 13.9847C3.77522 13.9326 2.65215 13.8487 2.13472 13.7085C1.77399 13.6109 1.44522 13.4203 1.18136 13.1557C0.917498 12.8911 0.727803 12.5618 0.631278 12.2008C0.513341 11.7577 0.434716 11.1531 0.381591 10.5454L0.373091 10.4338L0.364591 10.3233C0.312154 9.60338 0.283097 8.88192 0.277466 8.16009L0.277466 8.0294C0.279591 7.80096 0.288091 7.01152 0.345466 6.14027L0.352903 6.03084L0.356091 5.97559L0.364591 5.86509L0.387966 5.58884L0.398591 5.47834C0.449591 4.9269 0.525028 4.3914 0.632341 3.98871C0.728703 3.62751 0.918326 3.29799 1.1822 3.03319C1.44607 2.76838 1.77492 2.5776 2.13578 2.47996C2.65322 2.34184 3.77628 2.25684 4.95565 2.20371L5.13628 2.19627L5.31903 2.1899L5.4104 2.18671L5.59209 2.17927C6.60328 2.14673 7.61488 2.12867 8.62659 2.12509H8.83165V2.12402ZM7.07747 5.53465V10.6538L11.4943 8.09527L7.07747 5.53465Z" fill="#F3EF2A"/>
</g>
<defs>
<clipPath id="clip0_22_73">
<rect width="17" height="17" fill="white" transform="translate(0.277466)"/>
</clipPath>
</defs>
</svg>
