<svg width="18" height="17" viewBox="0 0 18 17" fill="none" xmlns="http://www.w3.org/2000/svg">
<g clip-path="url(#clip0_27_591)">
<path d="M8.83153 2.12402H8.92609C9.79947 2.12721 14.2248 2.15909 15.418 2.47996C15.7787 2.57789 16.1074 2.76877 16.3712 3.03353C16.635 3.29829 16.8247 3.62766 16.9214 3.98871C17.0287 4.39246 17.1042 4.9269 17.1552 5.47834L17.1658 5.58884L17.1892 5.86509L17.1977 5.97559C17.2667 6.94671 17.2752 7.85621 17.2763 8.0549V8.13459C17.2752 8.34071 17.2657 9.31184 17.1892 10.3233L17.1807 10.4349L17.1711 10.5454C17.118 11.1531 17.0393 11.7566 16.9214 12.2008C16.825 12.562 16.6354 12.8915 16.3715 13.1563C16.1077 13.4211 15.7788 13.6119 15.418 13.7095C14.1855 14.041 9.50091 14.0644 8.85172 14.0655H8.70084C8.37253 14.0655 7.01466 14.0591 5.59091 14.0102L5.41028 14.0038L5.31784 13.9996L5.13616 13.9921L4.95447 13.9847C3.77509 13.9326 2.65203 13.8487 2.13459 13.7085C1.77386 13.6109 1.4451 13.4203 1.18124 13.1557C0.917376 12.8911 0.727681 12.5618 0.631156 12.2008C0.513219 11.7577 0.434594 11.1531 0.381469 10.5454L0.372969 10.4338L0.364469 10.3233C0.312032 9.60338 0.282975 8.88192 0.277344 8.16009L0.277344 8.0294C0.279469 7.80096 0.287969 7.01152 0.345344 6.14027L0.352781 6.03084L0.355969 5.97559L0.364469 5.86509L0.387844 5.58884L0.398469 5.47834C0.449469 4.9269 0.524906 4.3914 0.632219 3.98871C0.728581 3.62751 0.918204 3.29799 1.18208 3.03319C1.44595 2.76838 1.7748 2.5776 2.13566 2.47996C2.65309 2.34184 3.77616 2.25684 4.95553 2.20371L5.13616 2.19627L5.31891 2.1899L5.41028 2.18671L5.59197 2.17927C6.60316 2.14673 7.61476 2.12867 8.62647 2.12509H8.83153V2.12402ZM7.07734 5.53465V10.6538L11.4942 8.09527L7.07734 5.53465Z" fill="#F3EF2A"/>
</g>
<defs>
<clipPath id="clip0_27_591">
<rect width="17" height="17" fill="white" transform="translate(0.277344)"/>
</clipPath>
</defs>
</svg>
