<svg width="17" height="17" viewBox="0 0 17 17" fill="none" xmlns="http://www.w3.org/2000/svg">
<g clip-path="url(#clip0_27_932)">
<path d="M8.33939 2.75558H8.42967C9.26344 2.75863 13.4881 2.78906 14.6272 3.09538C14.9715 3.18887 15.2853 3.3711 15.5372 3.62385C15.789 3.87661 15.9702 4.19104 16.0624 4.53572C16.1649 4.92116 16.2369 5.43136 16.2856 5.9578L16.2957 6.06329L16.318 6.32701L16.3262 6.4325C16.3921 7.35959 16.4002 8.22785 16.4012 8.41752V8.4936C16.4002 8.69038 16.3911 9.61747 16.318 10.5831L16.3099 10.6896L16.3008 10.7951C16.2501 11.3753 16.175 11.9514 16.0624 12.3754C15.9704 12.7202 15.7894 13.0348 15.5375 13.2876C15.2856 13.5404 14.9717 13.7225 14.6272 13.8157C13.4506 14.1322 8.97842 14.1545 8.35867 14.1555H8.21463C7.90121 14.1555 6.60491 14.1495 5.24571 14.1028L5.07328 14.0967L4.98503 14.0927L4.81159 14.0856L4.63814 14.0785C3.51224 14.0287 2.4401 13.9486 1.94613 13.8147C1.60176 13.7216 1.2879 13.5396 1.036 13.287C0.784106 13.0344 0.603012 12.72 0.510865 12.3754C0.398275 11.9524 0.323215 11.3753 0.272499 10.7951L0.264385 10.6886L0.25627 10.5831C0.206211 9.8958 0.178471 9.20705 0.173096 8.51794L0.173096 8.39318C0.175124 8.1751 0.183239 7.42146 0.238012 6.58972L0.245112 6.48524L0.248155 6.4325L0.25627 6.32701L0.278585 6.06329L0.288728 5.9578C0.337416 5.43136 0.409432 4.92015 0.511879 4.53572C0.603871 4.1909 0.784896 3.87632 1.0368 3.62352C1.28871 3.37072 1.60265 3.18859 1.94714 3.09538C2.44112 2.96352 3.51325 2.88237 4.63915 2.83166L4.81159 2.82456L4.98605 2.81847L5.07328 2.81543L5.24673 2.80833C6.21207 2.77727 7.1778 2.76002 8.14363 2.7566H8.33939V2.75558ZM6.66475 6.01156V10.8986L10.8813 8.45607L6.66475 6.01156Z" fill="#FDFBF9"/>
</g>
<defs>
<clipPath id="clip0_27_932">
<rect width="16.2291" height="16.2291" fill="white" transform="translate(0.173096 0.727936)"/>
</clipPath>
</defs>
</svg>
