<svg width="18" height="17" viewBox="0 0 18 17" fill="none" xmlns="http://www.w3.org/2000/svg">
<g clip-path="url(#clip0_27_911)">
<path d="M8.94437 2.75558H9.03465C9.86842 2.75863 14.0931 2.78906 15.2322 3.09538C15.5765 3.18887 15.8903 3.3711 16.1422 3.62385C16.394 3.87661 16.5751 4.19104 16.6674 4.53572C16.7699 4.92116 16.8419 5.43136 16.8906 5.9578L16.9007 6.06329L16.923 6.32701L16.9311 6.4325C16.9971 7.35959 17.0052 8.22785 17.0062 8.41752V8.4936C17.0052 8.69038 16.9961 9.61747 16.923 10.5831L16.9149 10.6896L16.9058 10.7951C16.8551 11.3753 16.78 11.9514 16.6674 12.3754C16.5754 12.7202 16.3944 13.0348 16.1425 13.2876C15.8906 13.5404 15.5766 13.7225 15.2322 13.8157C14.0555 14.1322 9.5834 14.1545 8.96365 14.1555H8.81961C8.50619 14.1555 7.20989 14.1495 5.8507 14.1028L5.67826 14.0967L5.59001 14.0927L5.41657 14.0856L5.24312 14.0785C4.11722 14.0287 3.04508 13.9486 2.55111 13.8147C2.20674 13.7216 1.89288 13.5396 1.64098 13.287C1.38909 13.0344 1.20799 12.72 1.11585 12.3754C1.00326 11.9524 0.928196 11.3753 0.87748 10.7951L0.869365 10.6886L0.86125 10.5831C0.811191 9.8958 0.783452 9.20705 0.778076 8.51794L0.778076 8.39318C0.780105 8.1751 0.788219 7.42146 0.842993 6.58972L0.850093 6.48524L0.853136 6.4325L0.86125 6.32701L0.883566 6.06329L0.893709 5.9578C0.942396 5.43136 1.01441 4.92015 1.11686 4.53572C1.20885 4.1909 1.38988 3.87632 1.64178 3.62352C1.89369 3.37072 2.20763 3.18859 2.55212 3.09538C3.0461 2.96352 4.11823 2.88237 5.24413 2.83166L5.41657 2.82456L5.59103 2.81847L5.67826 2.81543L5.85171 2.80833C6.81705 2.77727 7.78278 2.76002 8.74861 2.7566H8.94437V2.75558ZM7.26973 6.01156V10.8986L11.4863 8.45607L7.26973 6.01156Z" fill="#FDFBF9"/>
</g>
<defs>
<clipPath id="clip0_27_911">
<rect width="16.2291" height="16.2291" fill="white" transform="translate(0.778076 0.727936)"/>
</clipPath>
</defs>
</svg>
