<svg width="26" height="25" viewBox="0 0 26 25" fill="none" xmlns="http://www.w3.org/2000/svg">
<g clip-path="url(#clip0_49_809)">
<path d="M13.1204 3.52099H13.2545C14.493 3.52551 20.7688 3.57071 22.4609 4.02576C22.9724 4.16464 23.4386 4.43534 23.8127 4.81081C24.1869 5.18627 24.4559 5.65336 24.593 6.16539C24.7452 6.73797 24.8521 7.49588 24.9245 8.2779L24.9395 8.4346L24.9727 8.82636L24.9847 8.98307C25.0827 10.3603 25.0947 11.6501 25.0962 11.9318V12.0449C25.0947 12.3372 25.0812 13.7144 24.9727 15.1488L24.9606 15.307L24.9471 15.4637C24.8717 16.3256 24.7602 17.1815 24.593 17.8113C24.4563 18.3235 24.1874 18.7908 23.8132 19.1664C23.439 19.5419 22.9726 19.8125 22.4609 19.9509C20.713 20.421 14.0696 20.4542 13.149 20.4557H12.935C12.4694 20.4557 10.5438 20.4467 8.52467 20.3773L8.26852 20.3683L8.13743 20.3623L7.87977 20.3517L7.62211 20.3412C5.94958 20.2674 4.35691 20.1483 3.62311 19.9494C3.11154 19.8111 2.64531 19.5408 2.27111 19.1655C1.89692 18.7903 1.6279 18.3233 1.49102 17.8113C1.32376 17.183 1.21226 16.3256 1.13692 15.4637L1.12487 15.3055L1.11281 15.1488C1.03845 14.1278 0.997244 13.1047 0.989258 12.081L0.989258 11.8957C0.992271 11.5717 1.00433 10.4522 1.08569 9.21662L1.09624 9.06142L1.10076 8.98307L1.11281 8.82636L1.14596 8.4346L1.16103 8.2779C1.23336 7.49588 1.34034 6.73646 1.49252 6.16539C1.62918 5.65316 1.89809 5.18585 2.2723 4.81031C2.64651 4.43478 3.11287 4.16422 3.62462 4.02576C4.35842 3.82988 5.95109 3.70934 7.62361 3.634L7.87977 3.62345L8.13893 3.61441L8.26852 3.60989L8.52618 3.59934C9.96019 3.5532 11.3948 3.52758 12.8295 3.5225H13.1204V3.52099ZM10.6327 8.35776V15.6174L16.8963 11.9891L10.6327 8.35776Z" fill="#FDFBF9"/>
</g>
<defs>
<clipPath id="clip0_49_809">
<rect width="24.1085" height="24.1085" fill="white" transform="translate(0.989258 0.508881)"/>
</clipPath>
</defs>
</svg>
